<svg width="342" height="432" viewBox="0 0 342 432" fill="none" xmlns="http://www.w3.org/2000/svg">
<path opacity="0.4" d="M27.4123 216.685H53.9688C53.9688 216.685 57.8413 208.072 48.9353 204.78C48.9353 204.78 42.919 203.044 39.5634 208.132C37.8689 207.548 36.0451 207.449 34.297 207.844C31.2253 208.479 27.4545 211.657 27.4121 216.685H27.4123Z" fill="#0053EA"/>
<path opacity="0.6" d="M46.207 0.681641H282.33C289.35 0.681641 295.041 6.36651 295.041 13.3791V418.427C295.041 425.439 289.35 431.124 282.33 431.124H46.207C41.4966 431.124 37.6782 427.31 37.6782 422.604V9.2016C37.6782 4.49611 41.4967 0.681641 46.207 0.681641V0.681641Z" fill="#A4CDF6"/>
<path d="M220.9 430.637H180.438V432H220.9V430.637Z" fill="black"/>
<path d="M281.33 431.843V430.481C288.53 430.471 294.364 424.642 294.371 417.449V14.3946C294.364 7.20194 288.53 1.37216 281.33 1.3628H151.327V0H281.33C289.286 0 295.736 6.44285 295.736 14.3904V417.444C295.74 425.392 289.295 431.839 281.339 431.843H281.33V431.843Z" fill="black"/>
<path d="M107.552 0H77.8604V1.3629H107.552V0Z" fill="black"/>
<path opacity="0.1" d="M211.511 89.1104H238.742C245.465 89.1104 250.914 94.6634 250.914 101.511V139.299C250.914 146.147 245.465 151.7 238.742 151.7H140.993V93.0466L211.511 89.1104Z" fill="black"/>
<path d="M238.157 89.1104H101.888C97.1772 89.1104 93.3588 92.9249 93.3588 97.6303V137.238C93.3588 141.943 97.1772 145.758 101.888 145.758H238.157C242.867 145.758 246.686 141.943 246.686 137.238V97.6303C246.686 92.9249 242.867 89.1104 238.157 89.1104Z" fill="#58A0F4"/>
<path d="M162.161 88.5264H139.545V89.4363H162.161V88.5264Z" fill="black"/>
<path d="M178.43 146.215H101.032C96.5491 146.215 92.9011 141.081 92.9011 134.787V100.094C92.9011 93.7873 96.5491 88.666 101.032 88.666V89.576C97.0533 89.576 93.829 94.2994 93.829 100.106V134.787C93.829 140.59 97.066 145.313 101.032 145.313H178.43V146.215V146.215Z" fill="black"/>
<path d="M219.494 145.301H202.898V146.211H219.494V145.301Z" fill="black"/>
<path d="M205.673 67.4951H91.6979C88.4664 67.4951 85.8468 70.1121 85.8468 73.3402V98.972C85.8468 102.2 88.4664 104.817 91.6979 104.817H205.673C208.905 104.817 211.524 102.2 211.524 98.972V73.3402C211.524 70.1121 208.905 67.4951 205.673 67.4951Z" fill="#0078EF"/>
<path d="M123.546 90.2743H121.127L119.669 87.8702C119.564 87.6883 119.458 87.5274 119.36 87.3835C119.269 87.2523 119.167 87.1292 119.055 87.0152C118.963 86.921 118.855 86.8424 118.737 86.7825C118.624 86.7266 118.499 86.6977 118.373 86.6978H117.805V90.2743H115.687V80.9375H119.025C121.285 80.9375 122.415 81.784 122.415 83.477C122.42 83.784 122.369 84.0892 122.267 84.3785C122.169 84.649 122.025 84.9009 121.843 85.1234C121.656 85.3495 121.433 85.5427 121.182 85.6948C120.918 85.8591 120.633 85.9873 120.335 86.0757V86.1011C120.488 86.1444 120.632 86.2163 120.758 86.3127C120.895 86.4153 121.023 86.5301 121.14 86.6556C121.263 86.7901 121.379 86.9314 121.487 87.0788C121.597 87.227 121.699 87.3751 121.788 87.5021L123.546 90.2744L123.546 90.2743ZM117.805 82.5119V85.1106H118.72C119.12 85.1286 119.512 84.9888 119.809 84.7213C120.084 84.4676 120.238 84.109 120.233 83.7352C120.233 82.9169 119.744 82.5091 118.767 82.5119H117.805V82.5119Z" fill="white"/>
<path d="M130.558 90.2746H128.507V89.2587H128.474C128.057 89.993 127.276 90.4448 126.431 90.4396C124.886 90.4396 124.112 89.5028 124.11 87.6293V83.6084H126.164V87.4472C126.164 88.3911 126.537 88.8608 127.287 88.8608C127.626 88.8748 127.952 88.7328 128.173 88.4757C128.408 88.1764 128.527 87.802 128.507 87.4219V83.6126H130.558V90.2746Z" fill="white"/>
<path d="M134.354 90.2743H132.295V80.3999H134.354V90.2743Z" fill="white"/>
<path d="M142.087 87.5444H137.731C137.799 88.5122 138.409 88.9962 139.561 88.9962C140.243 89.0112 140.915 88.8304 141.498 88.4756V89.9612C140.748 90.3203 139.922 90.4903 139.091 90.4564C137.381 90.6183 135.864 89.3649 135.702 87.6568C135.683 87.4618 135.683 87.2655 135.702 87.0704C135.651 86.098 136 85.1469 136.668 84.4378C137.289 83.7994 138.149 83.4482 139.04 83.4686C139.884 83.4157 140.708 83.7325 141.298 84.3363C141.859 84.9866 142.146 85.8284 142.099 86.6853L142.087 87.5445V87.5444ZM140.176 86.2747C140.176 85.3238 139.789 84.847 139.015 84.8441C138.683 84.8504 138.372 85.0059 138.167 85.2674C137.925 85.5561 137.777 85.9121 137.744 86.2874L140.176 86.2747H140.176Z" fill="white"/>
<path d="M153.149 90.2743H147.217V88.6448H149.154V82.8294L147.167 83.2527V81.5851L151.208 80.7725V88.6448H153.132L153.149 90.2743H153.149Z" fill="white"/>
<path d="M92.5495 105.168C88.9012 105.164 85.9447 102.21 85.9401 98.5658V73.535C85.9447 69.8911 88.9019 66.9388 92.5495 66.9365H113.488V67.8465H92.5495C89.4066 67.8511 86.8599 70.3952 86.8552 73.535V98.5489C86.8598 101.689 89.4066 104.233 92.5495 104.237V105.169V105.168Z" fill="black"/>
<path d="M205.923 105.168H184.955V104.254H205.923C209.073 104.25 211.622 101.695 211.617 98.5489V73.535C211.613 70.3952 209.066 67.8512 205.923 67.8465V66.9365C209.571 66.9388 212.528 69.8911 212.532 73.535V98.5489C212.537 102.2 209.578 105.164 205.923 105.168Z" fill="black"/>
<path d="M150.564 66.9365H135.325V67.8465H150.564V66.9365Z" fill="black"/>
<g opacity="0.5">
<path d="M209.596 114.747C209.596 112.909 208.105 111.42 206.266 111.42H118.504C116.665 111.42 115.174 112.909 115.174 114.747C115.174 116.584 116.665 118.073 118.504 118.073H128.08C129.916 118.071 131.407 119.557 131.41 121.392V121.396C131.41 123.233 129.919 124.722 128.08 124.722H118.504C116.665 124.722 115.174 126.212 115.174 128.049C115.174 129.886 116.665 131.376 118.504 131.376H135.303C137.143 131.376 138.634 129.886 138.634 128.049C138.631 126.214 140.118 124.725 141.955 124.722H143.341C145.178 124.722 146.667 126.21 146.667 128.045V128.049C146.667 129.886 148.157 131.376 149.997 131.376H195.691C197.525 131.369 199.006 129.881 199.004 128.049C199.004 126.212 200.495 124.722 202.334 124.722H213.986C215.825 124.722 217.316 123.233 217.316 121.396C217.316 119.561 215.827 118.073 213.99 118.073H212.914C211.079 118.066 209.596 116.579 209.596 114.747L209.596 114.747Z" fill="#0078EF"/>
<path d="M223.629 124.638C225.421 124.638 226.874 123.186 226.874 121.396C226.874 119.605 225.421 118.154 223.629 118.154C221.836 118.154 220.383 119.605 220.383 121.396C220.383 123.186 221.836 124.638 223.629 124.638Z" fill="#0078EF"/>
</g>
<path opacity="0.1" d="M129.393 204.386H128.711V181.353H91.9564C88.7905 181.353 86.224 183.917 86.224 187.08V216.588C86.226 219.094 87.8557 221.308 90.249 222.057V253.093C90.249 259.946 95.6637 265.495 102.341 265.495H195.975V208.327L129.393 204.386L129.393 204.386Z" fill="black"/>
<path d="M241.551 203.396H106.205C101.239 203.396 97.2142 207.417 97.2142 212.377V251.062C97.2142 256.022 101.239 260.043 106.205 260.043H241.551C246.516 260.043 250.541 256.022 250.541 251.062V212.377C250.541 207.417 246.516 203.396 241.551 203.396Z" fill="#58A0F4"/>
<path d="M166.012 202.812H143.396V203.721H166.012V202.812Z" fill="black"/>
<path d="M182.281 260.5H107.357C105.133 260.5 102.459 259.23 100.375 257.148C98.0403 254.837 96.7566 251.963 96.7566 249.06V214.379C96.7566 208.072 100.4 202.951 104.883 202.951V203.861C100.905 203.861 97.6803 208.585 97.6803 214.391V249.072C97.6803 255.078 103.557 259.603 107.37 259.603H182.281V260.5L182.281 260.5Z" fill="black"/>
<path d="M223.345 259.59H206.749V260.5H223.345V259.59Z" fill="black"/>
<path d="M209.524 181.78H95.5492C92.3178 181.78 89.6981 184.397 89.6981 187.625V213.257C89.6981 216.485 92.3178 219.102 95.5492 219.102H209.524C212.756 219.102 215.375 216.485 215.375 213.257V187.625C215.375 184.397 212.756 181.78 209.524 181.78Z" fill="#0078EF"/>
<path d="M123.546 203.311H121.127L119.669 200.907C119.564 200.725 119.458 200.56 119.36 200.42C119.269 200.289 119.167 200.166 119.055 200.052C118.963 199.957 118.855 199.877 118.737 199.815C118.624 199.761 118.499 199.733 118.373 199.735H117.805V203.311H115.687V193.97H119.025C121.285 193.97 122.415 194.817 122.415 196.51C122.426 197.11 122.223 197.695 121.843 198.16C121.655 198.385 121.432 198.578 121.182 198.732C120.919 198.896 120.633 199.023 120.335 199.108V199.134C120.487 199.179 120.63 199.251 120.758 199.345C120.895 199.448 121.023 199.563 121.14 199.688C121.258 199.82 121.377 199.959 121.487 200.112C121.597 200.264 121.699 200.408 121.788 200.535L123.546 203.311L123.546 203.311ZM117.805 195.549V198.143H118.72C119.121 198.164 119.513 198.023 119.809 197.754C120.084 197.502 120.238 197.145 120.233 196.772C120.233 195.954 119.744 195.546 118.767 195.549H117.805V195.549Z" fill="white"/>
<path d="M130.558 203.311H128.507V202.295H128.474C128.056 203.027 127.275 203.477 126.431 203.472C124.886 203.472 124.112 202.536 124.11 200.666V196.641H126.164V200.484C126.164 201.428 126.537 201.897 127.287 201.897C127.627 201.91 127.953 201.766 128.173 201.508C128.408 201.21 128.526 200.837 128.507 200.458V196.649H130.558V203.311Z" fill="white"/>
<path d="M134.354 203.311H132.295V193.437H134.354V203.311Z" fill="white"/>
<path d="M142.087 200.552H137.731C137.799 201.522 138.409 202.008 139.561 202.008C140.244 202.023 140.917 201.841 141.498 201.483V202.968C140.748 203.328 139.922 203.498 139.091 203.464C137.384 203.628 135.866 202.379 135.702 200.674C135.682 200.475 135.682 200.276 135.702 200.078C135.651 199.105 136 198.154 136.668 197.445C137.289 196.807 138.149 196.455 139.04 196.476C139.88 196.419 140.703 196.728 141.298 197.322C141.859 197.975 142.145 198.818 142.099 199.676L142.087 200.552V200.552ZM140.176 199.282C140.176 198.325 139.789 197.847 139.015 197.847C138.683 197.855 138.373 198.01 138.167 198.27C137.925 198.561 137.777 198.918 137.744 199.295L140.176 199.282H140.176Z" fill="white"/>
<path d="M149.2 201.563V201.605H152.992V203.298H146.84V201.694L149.518 199.134C149.947 198.746 150.329 198.31 150.658 197.834C150.869 197.506 150.982 197.124 150.984 196.734C150.984 195.887 150.521 195.457 149.594 195.443C148.734 195.466 147.912 195.806 147.289 196.399V194.588C148.109 194.061 149.065 193.787 150.039 193.801C150.85 193.753 151.649 194.009 152.28 194.52C152.823 195.019 153.118 195.731 153.085 196.467C153.085 197.556 152.432 198.685 151.124 199.853L149.2 201.563V201.563Z" fill="white"/>
<path d="M96.4007 219.454C92.7524 219.449 89.7959 216.496 89.7913 212.851V187.824C89.7936 184.179 92.7514 181.224 96.4007 181.222H117.339V182.132H96.4007C93.2562 182.136 90.7088 184.683 90.7064 187.824V212.851C90.7087 215.992 93.2561 218.539 96.4007 218.544V219.454V219.454Z" fill="black"/>
<path d="M209.774 219.454H188.806V218.544H209.774C212.92 218.539 215.468 215.993 215.473 212.851V187.824C215.471 184.681 212.921 182.134 209.774 182.132V181.222C213.424 181.224 216.381 184.179 216.384 187.824V212.851C216.379 216.496 213.423 219.449 209.774 219.454V219.454Z" fill="black"/>
<path d="M154.416 181.222H139.176V182.132H154.416V181.222Z" fill="black"/>
<g opacity="0.5">
<path d="M213.448 229.032C213.448 227.194 211.957 225.705 210.118 225.705H122.343C120.506 225.705 119.017 227.193 119.017 229.028V229.032C119.015 230.867 120.502 232.356 122.339 232.358H131.918C133.755 232.356 135.246 233.842 135.248 235.677V235.681C135.248 237.518 133.757 239.008 131.918 239.008H122.343C120.506 239.008 119.017 240.495 119.017 242.33V242.334C119.015 244.169 120.502 245.659 122.339 245.661H139.142C140.981 245.661 142.472 244.172 142.472 242.334C142.47 240.499 143.957 239.01 145.794 239.008H147.179C149.018 239.008 150.509 240.497 150.509 242.334C150.507 244.169 151.994 245.659 153.831 245.661H199.542C201.381 245.661 202.872 244.172 202.872 242.334C202.87 240.499 204.357 239.01 206.194 239.008H217.849C219.689 239.008 221.18 237.518 221.18 235.681C221.18 233.846 219.69 232.358 217.854 232.358H216.799C214.96 232.37 213.459 230.89 213.447 229.053V229.032L213.448 229.032Z" fill="#0078EF"/>
<path d="M227.48 238.923C229.272 238.923 230.725 237.472 230.725 235.681C230.725 233.89 229.272 232.439 227.48 232.439C225.688 232.439 224.235 233.89 224.235 235.681C224.235 237.472 225.688 238.923 227.48 238.923Z" fill="#0078EF"/>
</g>
<path opacity="0.1" d="M211.511 317.613H238.742C245.465 317.613 250.914 323.166 250.914 330.014V367.802C250.914 374.65 245.465 380.203 238.742 380.203H140.993V321.554L211.511 317.613V317.613Z" fill="black"/>
<path d="M238.157 316.868H101.888C97.1772 316.868 93.3588 320.683 93.3588 325.388V364.996C93.3588 369.701 97.1772 373.516 101.888 373.516H238.157C242.867 373.516 246.686 369.701 246.686 364.996V325.388C246.686 320.683 242.867 316.868 238.157 316.868Z" fill="#58A0F4"/>
<path d="M162.161 316.284H139.545V317.194H162.161V316.284Z" fill="black"/>
<path d="M178.43 373.973H101.032C96.5491 373.973 92.9011 368.839 92.9011 362.545V327.852C92.9011 321.545 96.5491 316.424 101.032 316.424V317.338C97.0533 317.338 93.829 322.061 93.829 327.864V362.545C93.829 368.352 97.066 373.075 101.032 373.075H178.43V373.973V373.973Z" fill="black"/>
<path d="M219.494 373.063H202.898V373.973H219.494V373.063Z" fill="black"/>
<path d="M205.673 295.253H91.6979C88.4664 295.253 85.8468 297.87 85.8468 301.098V326.73C85.8468 329.958 88.4664 332.575 91.6979 332.575H205.673C208.905 332.575 211.524 329.958 211.524 326.73V301.098C211.524 297.87 208.905 295.253 205.673 295.253Z" fill="#0078EF"/>
<path d="M123.546 317.685H121.127L119.669 315.285C119.564 315.099 119.458 314.938 119.36 314.794C119.269 314.663 119.167 314.54 119.055 314.426C118.963 314.332 118.855 314.253 118.737 314.193C118.624 314.139 118.499 314.111 118.373 314.113H117.805V317.685H115.687V308.348H119.025C121.285 308.348 122.415 309.195 122.415 310.888C122.42 311.195 122.369 311.5 122.267 311.789C122.169 312.06 122.025 312.312 121.843 312.534C121.655 312.76 121.432 312.955 121.182 313.11C120.918 313.273 120.633 313.399 120.335 313.486V313.512C120.488 313.555 120.632 313.627 120.758 313.723C120.895 313.826 121.023 313.941 121.14 314.066C121.258 314.197 121.377 314.337 121.487 314.489C121.597 314.642 121.699 314.786 121.788 314.913L123.546 317.685L123.546 317.685ZM117.805 309.923V312.521H118.72C119.12 312.539 119.512 312.399 119.809 312.132C120.084 311.878 120.238 311.52 120.233 311.146C120.233 310.333 119.746 309.922 118.767 309.922H117.805V309.923Z" fill="white"/>
<path d="M130.558 317.685H128.507V316.669H128.474C128.057 317.404 127.276 317.855 126.431 317.85C124.886 317.85 124.112 316.915 124.11 315.044V311.019H126.164V314.862C126.164 315.802 126.537 316.271 127.287 316.271C127.626 316.285 127.952 316.143 128.173 315.886C128.408 315.587 128.527 315.213 128.507 314.833V311.023H130.558V317.685V317.685Z" fill="white"/>
<path d="M134.354 317.685H132.295V307.815H134.354V317.685Z" fill="white"/>
<path d="M142.087 314.938H137.731C137.799 315.906 138.409 316.39 139.561 316.39C140.243 316.405 140.915 316.224 141.498 315.869V317.368C140.748 317.727 139.922 317.897 139.091 317.863C137.381 318.025 135.864 316.771 135.702 315.063C135.683 314.868 135.683 314.672 135.702 314.477C135.652 313.505 136 312.554 136.668 311.844C137.29 311.208 138.149 310.857 139.04 310.875C139.88 310.817 140.704 311.126 141.298 311.722C141.859 312.372 142.146 313.214 142.099 314.071L142.087 314.938V314.938ZM140.176 313.669C140.176 312.718 139.789 312.241 139.015 312.238C138.683 312.244 138.372 312.4 138.167 312.661C137.925 312.95 137.777 313.306 137.744 313.681L140.176 313.669H140.176Z" fill="white"/>
<path d="M147.086 317.368V315.59C147.723 316.049 148.492 316.288 149.277 316.271C149.712 316.299 150.145 316.18 150.505 315.933C150.792 315.706 150.95 315.354 150.929 314.989C150.94 314.592 150.729 314.222 150.382 314.028C149.925 313.778 149.407 313.66 148.887 313.69H148.039V312.111H148.815C150.032 312.111 150.641 311.707 150.641 310.9C150.641 310.139 150.175 309.762 149.238 309.762C148.582 309.771 147.944 309.982 147.412 310.367V308.674C148.128 308.331 148.915 308.161 149.709 308.179C150.505 308.132 151.293 308.359 151.941 308.822C152.462 309.227 152.758 309.856 152.738 310.515C152.738 311.734 152.119 312.497 150.882 312.805V312.839C151.472 312.887 152.026 313.142 152.446 313.558C152.824 313.949 153.03 314.475 153.018 315.019C153.051 315.824 152.694 316.595 152.06 317.093C151.29 317.64 150.356 317.909 149.412 317.854C148.609 317.877 147.812 317.71 147.086 317.368V317.368Z" fill="white"/>
<path d="M92.5495 332.926C88.9012 332.922 85.9447 329.968 85.9401 326.324V301.284C85.9447 297.64 88.9012 294.686 92.5495 294.682H113.488V295.592H92.5495C89.405 295.596 86.8576 298.143 86.8552 301.284V326.311C86.8575 329.452 89.4049 331.999 92.5495 332.004V332.926V332.926Z" fill="black"/>
<path d="M205.923 332.926H184.955V332.016H205.923C209.068 332.012 211.615 329.465 211.617 326.324V301.284C211.615 298.143 209.068 295.596 205.923 295.592V294.682C209.571 294.686 212.528 297.64 212.532 301.284V326.311C212.535 329.961 209.576 332.922 205.923 332.926V332.926Z" fill="black"/>
<path d="M150.564 294.694H135.325V295.604H150.564V294.694Z" fill="black"/>
<g opacity="0.5">
<path d="M209.596 342.504C209.596 340.667 208.105 339.178 206.266 339.178H118.504C116.665 339.178 115.174 340.667 115.174 342.504C115.174 344.342 116.665 345.831 118.504 345.831H128.08C129.916 345.829 131.407 347.314 131.41 349.149V349.154C131.41 350.989 129.921 352.476 128.084 352.476H118.504C116.665 352.476 115.174 353.965 115.174 355.803C115.174 357.64 116.665 359.129 118.504 359.129H135.303C137.143 359.129 138.634 357.64 138.634 355.803C138.631 353.968 140.118 352.478 141.955 352.476H143.341C145.178 352.476 146.667 353.964 146.667 355.799V355.803C146.667 357.64 148.157 359.129 149.997 359.129H195.691C197.528 359.129 199.017 357.642 199.017 355.807V355.803C199.017 353.965 200.508 352.476 202.347 352.476H213.998C215.835 352.478 217.326 350.993 217.328 349.158V349.154C217.328 347.319 215.839 345.831 214.003 345.831H212.926C211.087 345.831 209.596 344.342 209.596 342.504H209.596Z" fill="#0078EF"/>
<path d="M223.629 352.396C225.421 352.396 226.874 350.944 226.874 349.154C226.874 347.363 225.421 345.912 223.629 345.912C221.836 345.912 220.383 347.363 220.383 349.154C220.383 350.944 221.836 352.396 223.629 352.396Z" fill="#0078EF"/>
</g>
<path opacity="0.4" d="M260.472 419.506H339.502C339.502 419.506 351.039 393.874 324.525 384.072C324.525 384.072 306.616 378.912 296.629 394.047C296.629 394.047 290.088 391.296 280.953 393.201C271.819 395.106 260.642 404.557 260.472 419.506V419.506Z" fill="#0053EA"/>
<path opacity="0.4" d="M54.7908 57.3371H0C0 57.3371 1.16938 35.3282 22.54 35.3282C22.54 35.3282 39.3899 34.5622 44.6859 49.744C44.6859 49.7313 54.4009 48.6393 54.7908 57.337V57.3371Z" fill="#0053EA"/>
<path opacity="0.4" d="M298.197 173.316H321.775C321.775 173.316 321.275 163.839 312.077 163.839C312.077 163.839 304.828 163.513 302.548 170.044C302.548 170.044 298.366 169.574 298.197 173.316V173.316Z" fill="#0053EA"/>
<path d="M112.242 38.3547H109.183L107.336 35.303C107.2 35.0703 107.065 34.8798 106.938 34.6851C106.825 34.5177 106.697 34.3605 106.556 34.2154C106.432 34.0943 106.289 33.9943 106.133 33.9191C105.99 33.8507 105.833 33.8159 105.675 33.8175H104.946V38.3548H102.273V26.5039H106.51C109.385 26.5039 110.824 27.579 110.827 29.7291C110.831 30.1182 110.767 30.5049 110.637 30.8719C110.514 31.2169 110.332 31.5378 110.099 31.8199C109.859 32.1085 109.573 32.3546 109.251 32.5479C108.91 32.7579 108.54 32.9189 108.154 33.0263V33.0601C108.34 33.1199 108.514 33.21 108.671 33.3268C108.841 33.4553 109.001 33.5968 109.149 33.75C109.301 33.9198 109.442 34.0978 109.573 34.2833C109.713 34.4738 109.844 34.66 109.959 34.842L112.242 38.355L112.242 38.3547ZM104.946 28.5015V31.7986H106.103C106.612 31.8235 107.111 31.6453 107.489 31.3034C107.842 30.9773 108.035 30.5137 108.018 30.0337C108.018 28.9981 107.398 28.4804 106.158 28.4804L104.947 28.5015H104.946Z" fill="#0A2D57"/>
<path d="M120.288 34.8672H114.78C114.868 36.0946 115.643 36.7083 117.106 36.7083C117.971 36.7264 118.824 36.4974 119.563 36.048V37.9315C118.612 38.3881 117.563 38.6047 116.509 38.5622C115.14 38.5622 114.081 38.1813 113.323 37.4236C112.53 36.5643 112.122 35.4199 112.191 34.2535C112.126 33.02 112.569 31.8136 113.416 30.9141C114.206 30.1042 115.297 29.6582 116.428 29.6824C117.498 29.6186 118.544 30.0198 119.297 30.7828C120.001 31.6048 120.363 32.665 120.309 33.7455L120.288 34.8671L120.288 34.8672ZM117.864 33.2631C117.864 32.0469 117.373 31.4403 116.39 31.4431C115.967 31.4443 115.567 31.6355 115.301 31.9637C114.987 32.3301 114.792 32.7832 114.742 33.2631H117.864Z" fill="#0A2D57"/>
<path d="M129.91 29.8896L126.758 38.3546H123.792L120.788 29.8896H123.589L125.063 35.104C125.21 35.5951 125.307 36.1 125.351 36.6109H125.385C125.444 36.1175 125.546 35.6304 125.69 35.1549L127.198 29.8896H129.91V29.8896Z" fill="#0A2D57"/>
<path d="M138.477 34.8672H132.948C133.038 36.0946 133.814 36.7083 135.274 36.7083C136.139 36.7264 136.992 36.4974 137.731 36.048V37.9315C136.78 38.3881 135.731 38.6047 134.676 38.5622C133.308 38.5622 132.249 38.1813 131.49 37.4236C130.698 36.5643 130.289 35.4199 130.359 34.2535C130.294 33.02 130.736 31.8136 131.584 30.9141C132.375 30.1021 133.47 29.6559 134.604 29.6824C135.675 29.6186 136.72 30.0198 137.473 30.7828C138.177 31.6048 138.539 32.665 138.485 33.7455L138.477 34.8671L138.477 34.8672ZM136.053 33.2631C136.053 32.0469 135.562 31.4403 134.579 31.4431C134.156 31.4443 133.756 31.6355 133.49 31.9637C133.176 32.3301 132.981 32.7832 132.931 33.2631H136.053V33.2631Z" fill="#0A2D57"/>
<path d="M148.217 38.3546H145.62V33.6524C145.62 32.3403 145.154 31.6842 144.214 31.6842C143.774 31.6691 143.353 31.8621 143.078 32.2048C142.782 32.5796 142.632 33.0485 142.654 33.5254V38.3546H140.04V29.8897H142.654V31.2272H142.688C143.234 30.2418 144.286 29.6451 145.413 29.6823C147.285 29.6823 148.223 30.8448 148.226 33.1699L148.217 38.3547V38.3546Z" fill="#0A2D57"/>
<path d="M158.331 38.3548H155.725V37.085H155.683C155.154 38.0145 154.164 38.5871 153.094 38.5833C151.117 38.5833 150.135 37.3954 150.149 35.0195V29.8897H152.755V34.7655C152.755 35.9619 153.229 36.56 154.178 36.56C154.608 36.5758 155.021 36.3951 155.301 36.069C155.601 35.6897 155.752 35.2141 155.725 34.7316V29.8896H158.331V38.3546V38.3548Z" fill="#0A2D57"/>
<path d="M168.152 34.8669H162.623C162.71 36.0943 163.486 36.708 164.949 36.708C165.814 36.7261 166.667 36.4971 167.406 36.0477V37.9312C166.455 38.3878 165.406 38.6044 164.351 38.5619C162.983 38.5619 161.923 38.181 161.165 37.4233C160.373 36.564 159.964 35.4196 160.034 34.2532C159.969 33.0197 160.411 31.8133 161.258 30.9138C162.045 30.1049 163.133 29.6587 164.262 29.6821C165.331 29.6173 166.376 30.0187 167.126 30.7825C167.832 31.6039 168.196 32.6641 168.143 33.7452L168.152 34.8668L168.152 34.8669ZM165.724 33.2628C165.724 32.048 165.237 31.4428 164.254 31.4428C163.831 31.444 163.431 31.6352 163.165 31.9634C162.851 32.3298 162.656 32.7829 162.606 33.2628H165.724V33.2628Z" fill="#0A2D57"/>
<path d="M184.599 38.3547H181.527L179.68 35.303C179.544 35.0703 179.413 34.8798 179.286 34.6851C179.17 34.5185 179.041 34.3614 178.901 34.2154C178.776 34.0943 178.633 33.9943 178.477 33.9191C178.334 33.8507 178.178 33.8159 178.019 33.8175H177.299V38.3548H174.626V26.5039H178.862C181.744 26.5039 183.183 27.579 183.18 29.7291C183.183 30.1178 183.12 30.5042 182.993 30.8719C182.877 31.2129 182.703 31.5319 182.481 31.8157C182.24 32.103 181.954 32.3489 181.633 32.5437C181.293 32.7538 180.925 32.9149 180.54 33.022V33.0558C180.725 33.1157 180.898 33.2058 181.053 33.3225C181.223 33.451 181.383 33.5925 181.532 33.7458C181.683 33.9156 181.824 34.0936 181.955 34.2791C182.099 34.4696 182.227 34.6557 182.341 34.8378L184.599 38.355L184.599 38.3547ZM177.312 28.5015V31.7986H178.468C178.976 31.8233 179.473 31.6451 179.85 31.3034C180.203 30.9773 180.396 30.5137 180.379 30.0337C180.379 28.9981 179.759 28.4804 178.519 28.4804L177.312 28.5015H177.312Z" fill="#0A2D57"/>
<path d="M193.496 38.3548H190.891V37.085H190.848C190.319 38.0145 189.33 38.5871 188.26 38.5833C186.282 38.5833 185.294 37.3954 185.294 35.0195V29.8897H187.904V34.7655C187.904 35.9619 188.378 36.56 189.327 36.56C189.757 36.5758 190.17 36.3951 190.45 36.069C190.75 35.6897 190.901 35.2141 190.874 34.7316V29.8896H193.496V38.3546V38.3548Z" fill="#0A2D57"/>
<path d="M198.314 38.3546H195.7V25.8223H198.314V38.3546Z" fill="#0A2D57"/>
<path d="M208.126 34.8673H202.618C202.703 36.0947 203.477 36.7084 204.94 36.7084C205.805 36.7269 206.658 36.4979 207.397 36.0481V37.9316C206.448 38.3882 205.4 38.6048 204.347 38.5623C202.977 38.5623 201.915 38.1828 201.161 37.4237C200.365 36.5659 199.955 35.4208 200.025 34.2536C199.962 33.0204 200.404 31.8147 201.25 30.9141C202.04 30.1043 203.131 29.6583 204.262 29.6825C205.333 29.6182 206.378 30.0194 207.13 30.7829C207.835 31.6049 208.197 32.6651 208.143 33.7456L208.126 34.8672L208.126 34.8673ZM205.703 33.2632C205.703 32.047 205.211 31.4404 204.228 31.4432C203.806 31.445 203.406 31.6361 203.139 31.9638C202.825 32.3296 202.631 32.7833 202.584 33.2632H205.703H205.703Z" fill="#0A2D57"/>
<path d="M209.13 38.1303V36.0141C209.528 36.2601 209.955 36.455 210.401 36.5939C210.794 36.7152 211.202 36.7794 211.613 36.7844C211.988 36.8013 212.363 36.7362 212.71 36.5939C212.961 36.5108 213.131 36.278 213.134 36.0141C213.139 35.853 213.073 35.6978 212.952 35.5908C212.813 35.4711 212.655 35.3739 212.486 35.303C212.281 35.2166 212.072 35.1417 211.859 35.0787C211.634 35.0152 211.414 34.939 211.206 34.8586C210.899 34.7411 210.602 34.5995 210.317 34.4353C210.076 34.302 209.859 34.1304 209.673 33.9274C209.497 33.7331 209.362 33.5058 209.275 33.2587C209.177 32.9684 209.131 32.6632 209.139 32.3572C209.126 31.9287 209.233 31.505 209.448 31.134C209.66 30.7892 209.95 30.4992 210.296 30.2875C210.66 30.0628 211.06 29.9012 211.478 29.8091C211.934 29.7063 212.4 29.6552 212.867 29.6568C213.249 29.6574 213.63 29.6872 214.007 29.7456C214.394 29.8016 214.776 29.8851 215.151 29.9953V32.0141C214.818 31.8242 214.46 31.6817 214.088 31.5909C213.724 31.4963 213.349 31.448 212.973 31.447C212.811 31.447 212.649 31.4627 212.49 31.4936C212.343 31.516 212.201 31.5603 212.067 31.6248C211.959 31.6758 211.866 31.753 211.795 31.8491C211.728 31.9379 211.692 32.0467 211.694 32.1581C211.692 32.3045 211.745 32.4464 211.842 32.5559C211.954 32.6734 212.086 32.7695 212.232 32.8395C212.404 32.9245 212.583 32.9967 212.766 33.0553L213.35 33.25C213.673 33.3595 213.988 33.4925 214.291 33.6479C214.558 33.7763 214.802 33.9462 215.015 34.1515C215.217 34.3421 215.375 34.5729 215.481 34.8287C215.744 35.5551 215.684 36.3587 215.316 37.038C215.097 37.3842 214.8 37.6742 214.448 37.8846C214.061 38.1166 213.639 38.2824 213.198 38.3756C212.715 38.4782 212.222 38.5293 211.728 38.5279C210.845 38.5485 209.966 38.4137 209.13 38.1301L209.13 38.1303Z" fill="#0A2D57"/>
<path d="M224.752 34.8673H219.244C219.331 36.0947 220.107 36.7084 221.57 36.7084C222.435 36.7269 223.288 36.4979 224.027 36.0481V37.9316C223.077 38.3877 222.03 38.6043 220.976 38.5623C219.609 38.5623 218.547 38.1828 217.79 37.4237C216.995 36.5659 216.585 35.4208 216.655 34.2536C216.59 33.0201 217.032 31.8137 217.879 30.9141C218.669 30.1043 219.76 29.6583 220.892 29.6825C221.962 29.6182 223.008 30.0194 223.76 30.7829C224.464 31.6049 224.827 32.6651 224.773 33.7456L224.752 34.8672L224.752 34.8673ZM222.328 33.2632C222.328 32.047 221.837 31.4404 220.854 31.4432C220.431 31.445 220.031 31.6361 219.765 31.9638C219.451 32.3302 219.256 32.7833 219.205 33.2632H222.328V33.2632Z" fill="#0A2D57"/>
<path d="M231.429 38.2531C230.879 38.4916 230.281 38.5975 229.683 38.5621C227.842 38.5621 226.921 37.6055 226.921 35.6925V31.8155H225.548V29.8897H226.921V28.0613L229.509 27.3164V29.8897H231.412V31.8155H229.509V35.2396C229.509 36.12 229.861 36.5601 230.56 36.5601C230.859 36.5527 231.15 36.4697 231.408 36.3189L231.429 38.2531H231.429Z" fill="#0A2D57"/>
</svg>
