<svg width="264" height="183" viewBox="0 0 264 183" fill="none" xmlns="http://www.w3.org/2000/svg">
  <path opacity="0.5"
    d="M69.981 12.9878C114.558 12.9878 150.7 48.9778 150.7 93.3734C150.7 137.769 114.563 173.759 69.9853 173.759L69.981 12.9878V12.9878Z"
    fill="#FCDEA3" />
  <path
    d="M97.4792 33.0853C97.3126 33.0853 97.1775 32.9507 97.1775 32.7848V29.3258C97.1775 29.1599 97.3126 29.0253 97.4792 29.0253C97.6459 29.0253 97.781 29.1599 97.781 29.3258V32.7848C97.781 32.9507 97.6459 33.0853 97.4792 33.0853ZM97.5691 26.0693H97.5242C97.3594 26.0451 97.2453 25.8925 97.2696 25.7283C97.4446 24.5072 97.8826 23.3381 98.5536 22.3013C98.644 22.1618 98.8307 22.1218 98.9708 22.2118C99.1109 22.3018 99.1511 22.488 99.0607 22.6274C98.4332 23.5943 98.0229 24.6847 97.8581 25.8242C97.8318 25.9635 97.7115 26.0657 97.5692 26.0693H97.5691ZM101.327 20.2595C101.16 20.2611 101.024 20.128 101.022 19.962C101.021 19.8582 101.074 19.7612 101.162 19.7054C102.205 19.0384 103.379 18.6023 104.605 18.4267C104.771 18.4031 104.924 18.5176 104.948 18.6825C104.971 18.8472 104.856 19 104.691 19.0234C103.546 19.1865 102.451 19.5951 101.481 20.2212C101.434 20.2475 101.381 20.2608 101.327 20.2595V20.2595ZM126.101 18.9296H122.525C122.359 18.9296 122.224 18.7951 122.224 18.6291C122.224 18.4632 122.359 18.3286 122.525 18.3286H126.101C126.268 18.3286 126.403 18.4632 126.403 18.6291C126.403 18.7951 126.268 18.9296 126.101 18.9296H126.101ZM118.949 18.9296H115.374C115.207 18.9296 115.072 18.7951 115.072 18.6291C115.072 18.4632 115.207 18.3286 115.374 18.3286H118.949C119.116 18.3286 119.251 18.4632 119.251 18.6291C119.251 18.7951 119.116 18.9296 118.949 18.9296ZM111.796 18.9296H108.22C108.053 18.9296 107.918 18.7951 107.918 18.6291C107.918 18.4632 108.053 18.3286 108.22 18.3286H111.796C111.962 18.3286 112.097 18.4632 112.097 18.6291C112.097 18.7951 111.962 18.9296 111.796 18.9296Z"
    fill="#0076ED" />
  <path
    d="M138.074 18.6312C138.072 21.2607 135.93 23.3904 133.289 23.388C130.649 23.3856 128.511 21.2521 128.513 18.6226C128.515 15.9948 130.655 13.8657 133.294 13.8657C135.934 13.8657 138.074 15.9974 138.074 18.6269V18.6312Z"
    fill="#0D1A2A" />
  <path
    d="M132.382 20.8858C132.137 20.8839 131.941 20.6847 131.943 20.441C131.944 20.3268 131.989 20.2173 132.07 20.1357L133.568 18.6438L132.07 17.1413C131.897 16.9695 131.897 16.6908 132.07 16.519C132.242 16.3472 132.522 16.3472 132.694 16.519L134.515 18.3327C134.6 18.4141 134.647 18.5266 134.646 18.6438C134.645 18.7606 134.598 18.8724 134.515 18.9549L132.694 20.7686C132.61 20.8469 132.498 20.889 132.382 20.8858V20.8858Z"
    fill="white" />
  <path
    d="M140.118 93.7546H136.54C136.373 93.7405 136.248 93.5942 136.263 93.4276C136.275 93.2805 136.392 93.1638 136.54 93.1514H140.118C140.285 93.1654 140.409 93.3117 140.395 93.4783C140.383 93.6255 140.266 93.7421 140.118 93.7546ZM132.964 93.7546H129.388C129.221 93.7405 129.097 93.5942 129.111 93.4276C129.123 93.2805 129.24 93.1638 129.388 93.1514H132.964C133.131 93.1654 133.255 93.3117 133.241 93.4783C133.229 93.6255 133.112 93.7421 132.964 93.7546ZM125.812 93.7546H122.239C122.071 93.7405 121.947 93.5942 121.961 93.4276C121.974 93.2805 122.091 93.1638 122.239 93.1514H125.812C125.98 93.1654 126.104 93.3117 126.09 93.4783C126.077 93.6255 125.96 93.7421 125.812 93.7546ZM118.658 93.7546H118.121C117.954 93.7405 117.83 93.5942 117.844 93.4276C117.856 93.2805 117.973 93.1638 118.121 93.1514H118.658C118.826 93.1654 118.95 93.3117 118.936 93.4783C118.923 93.6255 118.806 93.7421 118.658 93.7546Z"
    fill="#0076ED" />
  <path
    d="M152.256 93.2753C152.255 95.9036 150.114 98.0334 147.475 98.0322C144.836 98.031 142.698 95.8994 142.699 93.271C142.7 90.6435 144.839 88.5142 147.477 88.5142C150.116 88.5142 152.256 90.6448 152.256 93.2732V93.2754"
    fill="#0D1A2A" />
  <path
    d="M146.568 95.53C146.45 95.5313 146.337 95.4843 146.255 95.4C146.083 95.229 146.082 94.951 146.254 94.7792L146.255 94.7778L147.753 93.2859L146.255 91.7834C146.083 91.6115 146.083 91.3329 146.255 91.1611C146.428 90.9893 146.708 90.9893 146.88 91.1611L148.701 92.9747C148.784 93.0575 148.83 93.1694 148.83 93.2859C148.829 93.4022 148.783 93.5137 148.701 93.597L146.88 95.4086C146.797 95.4897 146.684 95.5336 146.568 95.53V95.53Z"
    fill="white" />
  <path
    d="M126.101 168.062H122.525C122.358 168.048 122.234 167.902 122.248 167.735C122.26 167.588 122.378 167.472 122.525 167.459H126.101C126.268 167.473 126.393 167.62 126.379 167.786C126.366 167.933 126.249 168.05 126.101 168.062H126.101ZM118.949 168.062H115.373C115.206 168.048 115.082 167.902 115.096 167.735C115.108 167.588 115.226 167.472 115.373 167.459H118.949C119.117 167.473 119.241 167.62 119.227 167.786C119.214 167.933 119.097 168.05 118.949 168.062ZM111.795 168.062H108.22C108.052 168.048 107.928 167.902 107.942 167.735C107.955 167.588 108.072 167.472 108.22 167.459H111.795C111.963 167.473 112.087 167.62 112.073 167.786C112.06 167.933 111.943 168.05 111.795 168.062ZM104.648 167.973H104.605C103.379 167.798 102.204 167.362 101.162 166.694C101.023 166.603 100.983 166.418 101.072 166.279C101.158 166.138 101.342 166.093 101.484 166.178L101.5 166.189C102.471 166.813 103.566 167.222 104.71 167.387C104.874 167.414 104.985 167.569 104.958 167.733C104.933 167.875 104.812 167.98 104.667 167.983L104.648 167.973V167.973ZM98.8167 164.233C98.7137 164.232 98.6178 164.18 98.562 164.094C97.8911 163.057 97.4531 161.888 97.2781 160.667C97.2546 160.503 97.3694 160.351 97.5343 160.327C97.6982 160.304 97.8502 160.417 97.8751 160.58C98.0399 161.719 98.4502 162.81 99.0777 163.776C99.1685 163.914 99.13 164.099 98.9916 164.19L98.9878 164.192C98.9364 164.223 98.8765 164.237 98.8166 164.232L98.8167 164.233ZM97.4792 157.368C97.3126 157.368 97.1775 157.233 97.1775 157.067V153.606C97.1775 153.44 97.3126 153.306 97.4792 153.306C97.6459 153.306 97.781 153.44 97.781 153.606V157.067C97.781 157.233 97.6459 157.368 97.4792 157.368Z"
    fill="#0076ED" />
  <path
    d="M138.074 167.76C138.074 170.389 135.934 172.521 133.294 172.521C130.653 172.521 128.513 170.389 128.513 167.76C128.513 165.13 130.653 162.999 133.294 162.999C135.933 162.997 138.073 165.127 138.074 167.755V167.762"
    fill="#0D1A2A" />
  <path
    d="M132.382 170.012C132.264 170.013 132.151 169.966 132.07 169.882C131.899 169.709 131.899 169.432 132.07 169.26L133.568 167.768L132.07 166.276C131.897 166.104 131.897 165.826 132.07 165.654C132.242 165.482 132.522 165.482 132.694 165.654L134.515 167.465C134.598 167.548 134.645 167.66 134.646 167.776C134.647 167.894 134.6 168.006 134.515 168.088L132.694 169.901C132.609 169.978 132.497 170.018 132.382 170.012V170.012Z"
    fill="white" />
  <path
    d="M113.814 33.1406H13.4539C11.0749 33.1406 9.14624 35.0614 9.14624 37.4308V149.254C9.14624 151.624 11.0749 153.544 13.4539 153.544H113.814C116.193 153.544 118.121 151.624 118.121 149.254V37.4308C118.121 35.0614 116.193 33.1406 113.814 33.1406Z"
    fill="#94C4F7" />
  <path d="M85.2966 153.335H69.2234V153.875H85.2966V153.335Z" fill="black" />
  <path
    d="M66.2594 83.9961C66.2594 82.5295 67.4532 81.3406 68.9259 81.3406H105.449C106.269 81.3406 106.934 80.6784 106.934 79.8615V79.7613C106.934 78.9457 106.27 78.2844 105.451 78.2844H74.6909C73.2182 78.2844 72.0244 77.0955 72.0244 75.6288V75.6267C72.0244 74.1601 73.2182 72.9712 74.6909 72.9712H105.448C106.267 72.9724 106.932 72.3121 106.934 71.4964V71.4921C106.934 67.7103 103.855 64.6445 100.058 64.6445H22.6193C18.822 64.6445 15.7437 67.7103 15.7437 71.4921V85.0744C15.7437 88.8562 18.822 91.922 22.6193 91.922H101.543C103.691 91.9223 105.634 90.6508 106.486 88.6868C106.798 87.9352 106.44 87.074 105.685 86.7632C105.503 86.6881 105.307 86.6502 105.11 86.6515H68.9259C67.4532 86.6515 66.2594 85.4626 66.2594 83.9959V83.9961ZM48.868 86.6517H46.8907C45.418 86.6517 44.2242 85.4628 44.2242 83.9961C44.2242 82.5295 45.418 81.3406 46.8907 81.3406H48.868C50.3407 81.3406 51.5344 82.5295 51.5344 83.9961C51.5344 85.4628 50.3407 86.6517 48.868 86.6517Z"
    fill="#58A0F4" />
  <path
    d="M112.669 153.813V153.274C115.529 153.27 117.847 150.961 117.849 148.112V38.5667C117.846 35.7182 115.529 33.4096 112.669 33.4049H57.6589V32.8657H112.669C115.828 32.8728 118.385 35.4247 118.387 38.571V148.116C118.381 151.259 115.824 153.806 112.669 153.813V153.813Z"
    fill="black" />
  <path d="M40.2699 32.8701H28.4744V33.4093H40.2699V32.8701Z" fill="black" />
  <path
    d="M9.24902 56.3175H61.8448C62.8329 56.3175 63.6338 57.1151 63.6338 58.0991V71.1955C63.6338 72.1795 62.8329 72.9772 61.8448 72.9772H9.24902V56.3174V56.3175Z"
    fill="#002962" />
  <path
    d="M59.5508 54.6533H1.78895C0.800942 54.6533 0 55.451 0 56.435V69.5251C0 70.5091 0.800942 71.3067 1.78895 71.3067H59.5508C60.5388 71.3067 61.3397 70.5091 61.3397 69.5251V56.435C61.3397 55.451 60.5388 54.6533 59.5508 54.6533Z"
    fill="#0078EF" />
  <path
    d="M24.7144 65.4543H23.3534L22.5359 64.1074C22.4739 64.0052 22.4161 63.9135 22.3583 63.8325C22.3089 63.7561 22.2524 63.6848 22.1893 63.6193C22.1372 63.5655 22.0764 63.5209 22.0095 63.4871C21.9461 63.4563 21.8767 63.4403 21.8062 63.4402H21.4873V65.4457H20.3018V60.2178H22.1785C23.4625 60.2178 24.1045 60.6923 24.1045 61.6414C24.1064 61.814 24.0781 61.9856 24.0211 62.1486C23.966 62.3032 23.885 62.4473 23.7814 62.5748C23.6752 62.7011 23.5495 62.8097 23.409 62.8966C23.2577 62.9896 23.0943 63.0613 22.9233 63.1097V63.1246C23.0056 63.1503 23.0825 63.1907 23.1501 63.244C23.2274 63.3001 23.2991 63.3636 23.3641 63.4337C23.433 63.5092 23.498 63.5882 23.5589 63.6703C23.623 63.7534 23.6787 63.8365 23.7301 63.9175L24.7144 65.4541V65.4543ZM21.4873 61.1024V62.558H21.9988C22.2237 62.5702 22.4444 62.4936 22.613 62.3449C22.7664 62.2034 22.8514 62.0031 22.8462 61.795C22.8462 61.3361 22.5717 61.1074 22.0224 61.1088L21.4873 61.1024V61.1024Z"
    fill="white" />
  <path
    d="M28.6604 65.4542H27.5049V64.8852H27.4856C27.2519 65.2963 26.813 65.5492 26.3386 65.5459C25.4669 65.5459 25.0318 65.0216 25.0332 63.973V61.7139H26.1888V63.8707C26.1888 64.3992 26.4028 64.6614 26.8179 64.6614C27.0081 64.67 27.1917 64.5914 27.3165 64.4482C27.4509 64.2825 27.518 64.0726 27.5048 63.86V61.7139H28.6603V65.4542H28.6604Z"
    fill="white" />
  <path d="M30.7939 65.4543H29.634V59.9131H30.7939V65.4543Z" fill="white" />
  <path
    d="M35.1423 63.9135H32.6942C32.7327 64.4563 33.0759 64.7277 33.7235 64.7277C34.1072 64.7364 34.4854 64.635 34.8127 64.4357V65.269C34.3915 65.4703 33.9271 65.5654 33.4603 65.5461C32.5009 65.6439 31.6436 64.9486 31.5454 63.9931C31.5335 63.8767 31.5334 63.7594 31.545 63.6429C31.5168 63.098 31.7132 62.5654 32.0885 62.1681C32.4389 61.8106 32.9224 61.6137 33.4239 61.6246C33.8977 61.5957 34.3606 61.773 34.6929 62.1106C35.0073 62.4757 35.1683 62.9474 35.1423 63.4277V63.9136V63.9135ZM34.0724 63.206C34.0724 62.6688 33.8583 62.4025 33.4304 62.4025C33.2433 62.403 33.0664 62.4876 32.9488 62.6327C32.8089 62.7938 32.7222 62.994 32.7006 63.206H34.0723H34.0724Z"
    fill="white" />
  <path
    d="M41.3675 65.4543H38.0398V64.5421H39.129V61.2813L38.012 61.5221V60.5865L40.2782 60.1304V64.542H41.361L41.3674 65.4542L41.3675 65.4543Z"
    fill="white" />
  <path
    d="M66.2594 130.284C66.2594 128.817 67.4532 127.628 68.9259 127.628H105.449C106.269 127.628 106.934 126.966 106.934 126.149V126.049C106.934 125.232 106.269 124.57 105.449 124.57H74.691C73.22 124.57 72.0269 123.384 72.0245 121.919C72.0245 120.452 73.2183 119.263 74.691 119.263H105.449C106.269 119.263 106.934 118.601 106.934 117.784C106.934 114.002 103.855 110.937 100.058 110.937H22.6193C18.822 110.937 15.7437 114.002 15.7437 117.784V131.366C15.7437 135.148 18.822 138.214 22.6193 138.214H101.543C103.691 138.214 105.634 136.943 106.486 134.979C106.798 134.227 106.44 133.366 105.685 133.055C105.503 132.98 105.307 132.942 105.11 132.943H68.9259C67.4532 132.943 66.2594 131.755 66.2594 130.288V130.284V130.284ZM48.868 132.939H46.8907C45.418 132.939 44.2242 131.75 44.2242 130.284C44.2242 128.817 45.418 127.628 46.8907 127.628H48.868C50.3407 127.628 51.5344 128.817 51.5344 130.284C51.5344 131.75 50.3407 132.939 48.868 132.939Z"
    fill="#58A0F4" />
  <path
    d="M9.24902 102.606H61.8448C62.8329 102.606 63.6338 103.403 63.6338 104.387V117.475C63.6338 118.459 62.8329 119.257 61.8448 119.257H9.24902V102.605V102.606Z"
    fill="#002962" />
  <path
    d="M59.5508 100.941H1.78895C0.800942 100.941 0 101.739 0 102.723V115.813C0 116.797 0.800942 117.595 1.78895 117.595H59.5508C60.5388 117.595 61.3397 116.797 61.3397 115.813V102.723C61.3397 101.739 60.5388 100.941 59.5508 100.941Z"
    fill="#0078EF" />
  <path
    d="M22.5572 111.742H21.1962L20.3766 110.396C20.3146 110.293 20.2568 110.202 20.2011 110.121C20.1503 110.045 20.0931 109.973 20.0299 109.907C19.9778 109.854 19.9171 109.809 19.8501 109.775C19.7835 109.743 19.7102 109.727 19.6361 109.728H19.3172V111.734H18.1316V106.506H20.0104C21.2858 106.506 21.9235 106.98 21.9235 107.929C21.9254 108.102 21.8972 108.274 21.8401 108.437C21.7861 108.591 21.7058 108.735 21.6025 108.863C21.497 108.989 21.3711 109.097 21.2302 109.183C21.0792 109.276 20.9157 109.348 20.7444 109.396V109.411C20.8259 109.437 20.9025 109.477 20.9712 109.528C21.0477 109.586 21.1193 109.65 21.1853 109.72C21.2548 109.795 21.3206 109.874 21.3821 109.956C21.4442 110.039 21.502 110.123 21.5533 110.204L22.557 111.742L22.5572 111.742ZM19.3301 107.388V108.846H19.8437C20.0679 108.858 20.2876 108.781 20.4558 108.633C20.6095 108.492 20.6952 108.291 20.6911 108.083C20.6911 107.626 20.4159 107.396 19.8652 107.395L19.3301 107.388V107.388Z"
    fill="white" />
  <path
    d="M26.5033 111.742H25.3477V111.173H25.3306C25.0959 111.584 24.6564 111.837 24.1814 111.834C23.3097 111.834 22.8746 111.309 22.876 110.259V108.002H24.0315V110.159C24.0315 110.684 24.242 110.948 24.6628 110.949C24.8529 110.957 25.0363 110.879 25.1614 110.736C25.293 110.569 25.3592 110.36 25.3476 110.148V108.017H26.5032V111.742H26.5033Z"
    fill="white" />
  <path d="M28.637 111.742H27.4792V106.201H28.637V111.742Z" fill="white" />
  <path
    d="M32.9875 110.197H30.5372C30.5757 110.741 30.9203 111.011 31.5665 111.011C31.9503 111.02 32.3285 110.919 32.6557 110.719V111.553C32.2345 111.754 31.7701 111.849 31.3033 111.83C30.3438 111.926 29.4873 111.23 29.3904 110.274C29.3787 110.159 29.3787 110.042 29.3902 109.927C29.3612 109.382 29.5568 108.849 29.9317 108.452C30.282 108.094 30.7655 107.897 31.267 107.908C31.7414 107.879 32.205 108.057 32.5381 108.394C32.8529 108.759 33.0139 109.231 32.9875 109.711V110.197V110.197ZM31.9176 109.49C31.9176 108.953 31.7035 108.686 31.2756 108.686C31.0823 108.683 30.8983 108.769 30.777 108.919C30.6377 109.08 30.5517 109.28 30.5309 109.492L31.9176 109.49V109.49Z"
    fill="white" />
  <path
    d="M36.9869 110.764V110.785H39.1269V111.742H35.6602V110.837L37.1582 109.4C37.4003 109.183 37.6157 108.939 37.8001 108.671C37.9208 108.487 37.9854 108.273 37.9863 108.053C37.9863 107.572 37.726 107.331 37.2052 107.331C36.7207 107.343 36.2578 107.533 35.9063 107.866V106.851C36.3674 106.556 36.9055 106.403 37.4535 106.41C37.9095 106.383 38.3592 106.526 38.7139 106.813C39.0203 107.091 39.1865 107.491 39.1676 107.904C39.1676 108.514 38.7995 109.145 38.0634 109.799L36.9869 110.764V110.764Z"
    fill="white" />
  <path
    d="M36.2981 46.4733H34.7466L33.8135 44.9367C33.7451 44.8187 33.6787 44.7143 33.6145 44.6234C33.556 44.5401 33.4908 44.4618 33.4197 44.389C33.3569 44.328 33.2847 44.2777 33.2057 44.2398C33.1337 44.2047 33.0547 44.1864 32.9746 44.1865H32.6108V46.4733H31.269V40.5059H33.409C34.8642 40.5059 35.5918 41.0471 35.5918 42.1298C35.5936 42.3258 35.5611 42.5204 35.4955 42.7053C35.4324 42.8784 35.3405 43.0398 35.2237 43.1827C35.1015 43.3268 34.957 43.4505 34.7958 43.5493C34.624 43.6551 34.4382 43.7362 34.2437 43.79V43.8071C34.3369 43.8372 34.4244 43.8826 34.5026 43.9414C34.5895 44.005 34.6705 44.0763 34.7444 44.1545C34.8214 44.2369 34.8928 44.3265 34.9584 44.423C35.0241 44.5196 35.0882 44.6134 35.151 44.7044L36.298 46.4733H36.2981ZM32.6195 41.5118V43.172H33.2037C33.4602 43.1845 33.7113 43.0947 33.9013 42.9227C34.0769 42.7609 34.1742 42.5321 34.1688 42.294C34.1688 41.7726 33.8557 41.5118 33.2294 41.5118H32.6196H32.6195Z"
    fill="#0A2D57" />
  <path
    d="M40.3596 44.709H37.5776C37.6218 45.3285 38.0134 45.6382 38.7524 45.6382C39.1896 45.6476 39.6202 45.5322 39.9936 45.3057V46.2605C39.5135 46.4895 38.9846 46.5978 38.4528 46.5759C37.7623 46.5759 37.2259 46.3855 36.8435 46.0047C36.4418 45.5727 36.2347 44.9962 36.27 44.4084C36.2371 43.7873 36.4605 43.1798 36.8884 42.7268C37.2874 42.3191 37.8384 42.0945 38.41 42.1066C38.9508 42.0731 39.4795 42.2753 39.8587 42.6607C40.217 43.0774 40.4002 43.6155 40.3702 44.1632L40.3595 44.7088L40.3596 44.709ZM39.1355 43.9034C39.1355 43.291 38.8872 42.9856 38.3908 42.987C38.1773 42.9879 37.9754 43.084 37.8408 43.2491C37.6823 43.4336 37.5837 43.6618 37.5584 43.9034H39.1355V43.9034Z"
    fill="#0A2D57" />
  <path
    d="M45.2216 42.211L43.6273 46.4735H42.1293L40.6121 42.211H42.0244L42.7691 44.8367C42.8437 45.0839 42.8924 45.3382 42.9146 45.5954H42.9317C42.9613 45.3467 43.0136 45.1014 43.088 44.8622L43.8412 42.2109H45.2215L45.2216 42.211Z"
    fill="#0A2D57" />
  <path
    d="M49.5465 44.709H46.7539C46.7981 45.3285 47.1897 45.6382 47.9287 45.6382C48.3658 45.6476 48.7965 45.5322 49.1698 45.3057V46.2605C48.6898 46.4895 48.1609 46.5978 47.629 46.5759C46.9386 46.5759 46.4022 46.3855 46.0198 46.0047C45.6181 45.5727 45.4109 44.9962 45.4463 44.4084C45.4133 43.7873 45.6367 43.1798 46.0647 42.7268C46.4637 42.3191 47.0147 42.0945 47.5862 42.1066C48.1271 42.0731 48.6558 42.2753 49.0349 42.6607C49.3933 43.0774 49.5765 43.6155 49.5464 44.1632V44.7088L49.5465 44.709ZM48.3224 43.9034C48.3224 43.291 48.0742 42.9856 47.5778 42.987C47.3642 42.9879 47.1624 43.084 47.0278 43.2491C46.8692 43.4336 46.7706 43.6618 46.7453 43.9034H48.3224V43.9034Z"
    fill="#0A2D57" />
  <path
    d="M54.4663 46.4733H53.1502V44.097C53.1502 43.4363 52.9134 43.106 52.4397 43.106C52.2203 43.1012 52.0113 43.199 51.8748 43.3702C51.7253 43.5589 51.6494 43.795 51.6608 44.0351V46.4732H50.3362V42.2107H51.6566V42.8841H51.6737C51.9496 42.3884 52.4808 42.088 53.0497 42.1063C53.9955 42.1063 54.4692 42.6917 54.4707 43.8624L54.4664 46.4731L54.4663 46.4733Z"
    fill="#0A2D57" />
  <path
    d="M59.5786 46.4733H58.2539V45.8233H58.2347C57.9666 46.2912 57.466 46.5788 56.9251 46.5757C55.9349 46.5757 55.4392 45.9783 55.4377 44.7833V42.2109H56.7559V44.6661C56.7559 45.27 56.9956 45.5712 57.475 45.5697C57.6926 45.5777 57.902 45.4868 58.0442 45.3225C58.1948 45.1311 58.2708 44.8919 58.2582 44.6491V42.2109H59.5764L59.5785 46.4734L59.5786 46.4733Z"
    fill="#0A2D57" />
  <path
    d="M64.5348 44.709H61.7422C61.7864 45.3285 62.178 45.6382 62.917 45.6382C63.354 45.6474 63.7847 45.532 64.1581 45.3057V46.2605C63.6774 46.4897 63.1477 46.5979 62.6152 46.5759C61.9262 46.5759 61.389 46.3862 61.0081 46.0047C60.6064 45.5727 60.3992 44.9962 60.4345 44.4084C60.4016 43.7873 60.625 43.1798 61.053 42.7268C61.452 42.3191 62.003 42.0945 62.5745 42.1066C63.1153 42.0731 63.6441 42.2753 64.0232 42.6607C64.3815 43.0774 64.5647 43.6155 64.5347 44.1632V44.7088L64.5348 44.709ZM63.3108 43.9034C63.3108 43.291 63.0625 42.9856 62.5661 42.987C62.3526 42.9876 62.1507 43.0838 62.0162 43.2491C61.8576 43.4336 61.759 43.6618 61.7337 43.9034H63.3108V43.9034Z"
    fill="#0A2D57" />
  <path
    d="M72.8399 46.4733H71.2884L70.3576 44.9367C70.2869 44.8194 70.2206 44.7235 70.1564 44.6234C70.0985 44.5397 70.0334 44.4612 69.9616 44.389C69.8998 44.3269 69.8273 44.2765 69.7476 44.2398C69.6757 44.2047 69.5967 44.1864 69.5165 44.1865H69.1677V46.4733H67.8174V40.5059H69.9574C71.4126 40.5059 72.1401 41.0471 72.1401 42.1298C72.1419 42.3258 72.1094 42.5204 72.0439 42.7053C71.9815 42.8788 71.8896 43.0403 71.7721 43.1827C71.6495 43.3264 71.5052 43.4501 71.3441 43.5493C71.1714 43.6546 70.9849 43.7357 70.7898 43.79V43.8071C70.8832 43.8367 70.9708 43.8822 71.0488 43.9414C71.1357 44.005 71.2167 44.0763 71.2905 44.1545C71.3668 44.2401 71.4382 44.3297 71.5045 44.423C71.5752 44.5189 71.6393 44.6127 71.6993 44.7044L72.8399 46.4733V46.4733ZM69.1677 41.5055V43.1657H69.7519C70.009 43.178 70.2607 43.0884 70.4517 42.9163C70.6262 42.754 70.7235 42.5255 70.7192 42.2876C70.7192 41.7662 70.4053 41.5055 69.7776 41.5055H69.1677V41.5055Z"
    fill="#0A2D57" />
  <path
    d="M77.3359 46.4733H76.0155V45.8233H75.9941C75.7263 46.2906 75.2268 46.578 74.6866 46.5757C73.6879 46.5757 73.1922 45.9783 73.1993 44.7833V42.2109H74.5175V44.6661C74.5175 45.27 74.7572 45.5712 75.2365 45.5697C75.4541 45.5777 75.6636 45.4868 75.8057 45.3225C75.9563 45.1311 76.0323 44.8919 76.0198 44.6491V42.2109H77.3359V46.4734V46.4733Z"
    fill="#0A2D57" />
  <path d="M79.7689 46.4737H78.4485V40.1567H79.7689V46.4737Z" fill="#0A2D57" />
  <path
    d="M84.7252 44.7091H81.9433C81.9875 45.3285 82.3791 45.6383 83.1181 45.6383C83.5551 45.6474 83.9858 45.5321 84.3592 45.3058V46.2606C83.8785 46.4897 83.3488 46.5979 82.8163 46.576C82.1245 46.576 81.5881 46.3856 81.2071 46.0048C80.8063 45.5723 80.5992 44.996 80.6336 44.4084C80.6014 43.7871 80.8256 43.1796 81.2542 42.7269C81.652 42.3187 82.2026 42.0941 82.7735 42.1067C83.3143 42.0729 83.8432 42.2751 84.2222 42.6608C84.5806 43.0774 84.7638 43.6156 84.7337 44.1633L84.7251 44.7089L84.7252 44.7091ZM83.5054 43.9034C83.5054 43.2911 83.2579 42.9856 82.7629 42.987C82.5493 42.9876 82.3474 43.0839 82.2129 43.2492C82.0534 43.4332 81.9548 43.6617 81.9304 43.9034H83.5054V43.9034Z"
    fill="#0A2D57" />
  <path
    d="M85.2322 46.3541V45.2885C85.4331 45.4122 85.6488 45.5103 85.8742 45.5805C86.0725 45.6419 86.2786 45.6742 86.4863 45.6763C86.6751 45.6846 86.8634 45.6518 87.0383 45.5805C87.1612 45.5355 87.2425 45.4188 87.2416 45.2885C87.2449 45.2072 87.2111 45.1289 87.1496 45.0753C87.0801 45.0138 87.0005 44.9648 86.9142 44.9305C86.8112 44.886 86.7054 44.8483 86.5975 44.8175C86.4858 44.7856 86.3757 44.7479 86.2679 44.7045C86.1132 44.6444 85.9629 44.5732 85.8185 44.4913C85.6977 44.423 85.588 44.3368 85.4932 44.2355C85.4051 44.1364 85.3369 44.0213 85.2921 43.8967C85.2437 43.751 85.2205 43.5983 85.2236 43.4448C85.2174 43.2284 85.2714 43.0144 85.3799 42.8267C85.4843 42.6546 85.6271 42.5087 85.7972 42.4005C85.9821 42.2875 86.1845 42.2061 86.3964 42.1597C86.6259 42.108 86.8607 42.0822 87.0961 42.083C87.2888 42.0837 87.4812 42.0979 87.6717 42.1257C87.8669 42.1556 88.06 42.1983 88.2496 42.2535V43.2765C88.081 43.1816 87.9003 43.1098 87.7124 43.0633C87.5287 43.0155 87.3396 42.9912 87.1496 42.9909C87.0678 42.9902 86.986 42.9974 86.9056 43.0122C86.8353 43.0265 86.767 43.0493 86.7024 43.0803C86.6481 43.1053 86.601 43.1434 86.5654 43.1911C86.5313 43.2366 86.5133 43.2921 86.514 43.3488C86.513 43.422 86.5397 43.4927 86.5889 43.5471C86.6446 43.6075 86.7115 43.6567 86.7858 43.692C86.8729 43.7348 86.963 43.7711 87.0554 43.8007L87.3508 43.8988C87.5143 43.9536 87.6737 44.0198 87.828 44.097C87.9612 44.1642 88.0843 44.2496 88.1939 44.3506C88.2942 44.4481 88.3736 44.5648 88.4272 44.6937C88.5596 45.0595 88.5292 45.4642 88.3438 45.8062C88.2368 45.9827 88.0903 46.1323 87.9158 46.2432C87.7176 46.3612 87.5004 46.4442 87.2738 46.4882C87.0298 46.5399 86.7808 46.5656 86.5313 46.5649C86.0892 46.5704 85.6497 46.499 85.2323 46.354L85.2322 46.3541Z"
    fill="#0A2D57" />
  <path
    d="M93.1223 44.7091H90.3403C90.3832 45.3285 90.7741 45.6383 91.5131 45.6383C91.9508 45.6473 92.382 45.532 92.7564 45.3058V46.2606C92.2757 46.4894 91.746 46.5977 91.2135 46.576C90.5217 46.576 89.9852 46.3856 89.6043 46.0048C89.2026 45.5728 88.9954 44.9962 89.0307 44.4084C88.9988 43.7875 89.2221 43.1804 89.6492 42.7269C90.0482 42.3191 90.5992 42.0946 91.1707 42.1067C91.7115 42.0729 92.2404 42.2751 92.6194 42.6608C92.9777 43.0774 93.1609 43.6156 93.1309 44.1633L93.1223 44.7089V44.7091ZM91.8982 43.9034C91.8982 43.2911 91.65 42.9856 91.1536 42.987C90.9406 42.9876 90.7393 43.084 90.6058 43.2492C90.4455 43.4326 90.3467 43.6614 90.3233 43.9034H91.8983H91.8982Z"
    fill="#0A2D57" />
  <path
    d="M96.4949 46.4162C96.2169 46.5347 95.9151 46.5871 95.6132 46.5696C94.6845 46.5696 94.2194 46.0887 94.218 45.1269V43.1747H93.5247V42.2114H94.218V41.2907L95.5341 40.9155V42.2114H96.495V43.181H95.5341V44.9031C95.5341 45.3485 95.7117 45.5702 96.0649 45.5702C96.2155 45.5664 96.3628 45.5246 96.4928 45.4487L96.4949 46.4163V46.4162Z"
    fill="#0A2D57" />
  <path
    d="M245.044 37.3517H154.894C151.923 37.3505 149.514 34.951 149.514 31.9916V17.6549C149.514 15.2855 151.443 13.3647 153.822 13.3647H245.044C247.423 13.3647 249.352 15.2855 249.352 17.6549V33.0616C249.352 35.4309 247.423 37.3517 245.044 37.3517H245.044Z"
    fill="#0078EF" />
  <path d="M194.315 12.9854H179.587V13.5778H194.315V12.9854Z" fill="black" />
  <path
    d="M204.907 37.6139H154.509C151.61 37.6139 149.251 34.2977 149.251 30.2206V20.4958C149.251 16.4187 151.605 13.1025 154.509 13.1025V13.6268C151.9 13.6268 149.776 16.7086 149.776 20.4958V30.2206C149.776 34.0078 151.901 37.0896 154.509 37.0896H204.907V37.6139Z"
    fill="#002962" />
  <path d="M231.646 37.0898H220.839V37.612H231.646V37.0898Z" fill="#002962" />
  <path
    d="M144.173 0.387695H219.129C220.762 0.387695 222.085 1.70538 222.085 3.33092V15.2786C222.085 16.9042 220.762 18.2219 219.129 18.2219H144.316C142.071 18.2219 140.25 16.4089 140.25 14.1725V4.29424C140.25 2.13676 142.007 0.387695 144.173 0.387695V0.387695Z"
    fill="#FFC35A" />
  <path
    d="M144.614 18.4735C142.226 18.47 140.291 16.5427 140.287 14.1642V4.30931C140.29 1.93032 142.225 0.00228558 144.614 0H158.248V0.639365H144.614C142.579 0.640558 140.93 2.28299 140.929 4.30931V14.1641C140.931 16.19 142.58 17.8318 144.614 17.8341V18.4734V18.4735Z"
    fill="black" />
  <path
    d="M218.436 18.4735H204.783V17.8342H218.436C220.47 17.8318 222.119 16.19 222.121 14.1642V4.30931C222.12 2.28289 220.471 0.640558 218.436 0.639365V0C220.825 0.00238495 222.761 1.93032 222.763 4.30931V14.1641C222.76 16.5426 220.824 18.4699 218.436 18.4734V18.4735Z"
    fill="black" />
  <path d="M182.393 0H172.468V0.639365H182.393V0Z" fill="black" />
  <path
    d="M155.609 11.2358H152.915V6.76025H155.506V7.58078H153.927V8.5761H155.408V9.39026H153.938V10.4154H155.62L155.609 11.2359L155.609 11.2358Z"
    fill="#002962" />
  <path
    d="M159.335 11.2357H158.346V9.4604C158.346 8.96592 158.168 8.7166 157.813 8.7166C157.647 8.71203 157.489 8.78546 157.385 8.91485C157.272 9.05596 157.214 9.23304 157.221 9.4136V11.2358H156.23V8.03897H157.221V8.53773H157.233C157.439 8.16488 157.838 7.939 158.265 7.95381C158.978 7.95381 159.335 8.39284 159.335 9.2709V11.2359L159.335 11.2357Z"
    fill="#002962" />
  <path
    d="M162.057 11.1997C161.849 11.2857 161.624 11.3229 161.4 11.3084C160.702 11.3084 160.354 10.9475 160.354 10.2257V8.76157H159.833V8.03267H160.354V7.34431L161.342 7.06299V8.03267H162.061V8.76157H161.342V10.0531C161.342 10.3856 161.475 10.554 161.74 10.554C161.853 10.5507 161.964 10.5192 162.061 10.4623L162.057 11.1998V11.1997Z"
    fill="#002962" />
  <path
    d="M165.466 9.91893H163.373C163.404 10.3835 163.697 10.6158 164.252 10.6158C164.58 10.6232 164.903 10.5366 165.183 10.3665V11.0783C164.823 11.2498 164.426 11.331 164.028 11.3149C163.204 11.3951 162.471 10.7954 162.391 9.97538C162.382 9.88008 162.381 9.78408 162.391 9.68878C162.365 9.22263 162.533 8.7666 162.855 8.42715C163.154 8.12167 163.567 7.95344 163.995 7.96258C164.401 7.93783 164.798 8.08948 165.083 8.37816C165.35 8.69049 165.487 9.09334 165.466 9.50345V9.91903V9.91893ZM164.548 9.31365C164.548 8.85544 164.361 8.62738 163.989 8.62738C163.83 8.62818 163.679 8.70012 163.578 8.82345C163.457 8.96048 163.382 9.1319 163.364 9.31365H164.548H164.548Z"
    fill="#002962" />
  <path
    d="M168.158 8.92999C168.026 8.86222 167.878 8.82913 167.73 8.8341C167.533 8.82515 167.344 8.9127 167.225 9.06852C167.095 9.25603 167.032 9.48072 167.043 9.70788V11.2339H166.065V8.03703H167.054V8.63167H167.066C167.225 8.20546 167.494 7.99231 167.922 7.99231C168.006 7.98863 168.088 8.00165 168.166 8.03067L168.158 8.93009L168.158 8.92999Z"
    fill="#002962" />
  <path
    d="M169.622 10.865H169.609V12.7064H168.618V8.03904H169.609V8.5207H169.622C170.008 7.94414 170.791 7.78892 171.37 8.17389C171.461 8.2345 171.544 8.30665 171.616 8.38853C171.859 8.72481 171.98 9.13403 171.956 9.54792C171.979 10.0072 171.839 10.46 171.56 10.8266C171.306 11.1461 170.914 11.3259 170.505 11.3104C170.152 11.328 169.816 11.1587 169.622 10.865H169.622ZM169.594 9.55428V9.81642C169.585 10.0114 169.647 10.2031 169.769 10.3556C169.881 10.4945 170.051 10.5734 170.229 10.5688C170.439 10.5775 170.637 10.4784 170.756 10.3066C170.893 10.0858 170.958 9.82825 170.942 9.56918C170.942 9.00087 170.722 8.71666 170.283 8.71666C170.09 8.71229 169.907 8.79735 169.786 8.94681C169.651 9.11992 169.583 9.33536 169.594 9.55418V9.55428Z"
    fill="#002962" />
  <path
    d="M174.693 8.92999C174.561 8.86152 174.414 8.82853 174.265 8.8341C174.069 8.82475 173.881 8.9125 173.762 9.06852C173.632 9.25564 173.568 9.48052 173.58 9.70788V11.2339H172.59V8.03703H173.597V8.63167C173.754 8.20546 174.04 7.99231 174.453 7.99231C174.537 7.98863 174.62 8.00165 174.697 8.03067L174.693 8.93009V8.92999Z"
    fill="#002962" />
  <path
    d="M175.682 7.53404C175.531 7.54001 175.384 7.48724 175.271 7.38697C175.167 7.29426 175.109 7.1614 175.111 7.02257C175.107 6.88395 175.166 6.75099 175.271 6.66026C175.386 6.56387 175.532 6.51368 175.682 6.51965C175.832 6.51289 175.979 6.56317 176.093 6.66026C176.198 6.75118 176.256 6.88424 176.251 7.02257C176.256 7.16279 176.198 7.29783 176.093 7.39125C175.98 7.48992 175.832 7.5411 175.682 7.53404V7.53404ZM176.166 11.236H175.175V8.03916H176.166V11.236Z"
    fill="#002962" />
  <path
    d="M176.795 11.1529V10.3536C176.947 10.4453 177.11 10.5168 177.281 10.5668C177.43 10.6133 177.585 10.6377 177.741 10.6392C177.883 10.6459 178.025 10.6211 178.156 10.5668C178.246 10.5346 178.307 10.4494 178.308 10.3536C178.31 10.2941 178.285 10.2369 178.239 10.198C178.187 10.1512 178.127 10.1137 178.062 10.0872C177.985 10.0553 177.906 10.0275 177.826 10.0041C177.741 9.9786 177.657 9.95087 177.578 9.91888C177.462 9.87744 177.349 9.82616 177.242 9.76544C177.15 9.71496 177.067 9.65017 176.996 9.57365C176.93 9.49992 176.879 9.41376 176.846 9.32005C176.81 9.21015 176.792 9.09477 176.795 8.9791C176.79 8.81762 176.83 8.65803 176.913 8.51871C176.99 8.38953 177.097 8.28071 177.225 8.20111C177.363 8.11526 177.515 8.05394 177.674 8.01996C177.846 7.9811 178.022 7.96172 178.199 7.96242C178.342 7.96282 178.485 7.97355 178.627 7.99442C178.771 8.01698 178.914 8.04897 179.055 8.09031V8.85121C178.929 8.77877 178.793 8.72362 178.652 8.68715C178.513 8.65147 178.369 8.63359 178.224 8.63388C178.163 8.63388 178.101 8.63965 178.04 8.65098C177.988 8.66052 177.937 8.67701 177.888 8.69997C177.848 8.72074 177.813 8.74975 177.786 8.78523C177.76 8.81892 177.747 8.86016 177.747 8.90249C177.746 8.95784 177.767 9.0113 177.805 9.05165C177.846 9.09776 177.896 9.13482 177.953 9.16036C178.017 9.19266 178.085 9.21979 178.154 9.24135L178.368 9.31379C178.49 9.35583 178.609 9.40561 178.725 9.46295C178.826 9.51383 178.919 9.57842 179.001 9.65474C179.076 9.72768 179.136 9.81453 179.177 9.91053C179.275 10.1855 179.252 10.4891 179.113 10.746C179.031 10.8799 178.918 10.9924 178.783 11.0742C178.637 11.1616 178.477 11.2236 178.31 11.2574C178.127 11.2963 177.941 11.3156 177.754 11.315C177.427 11.3162 177.103 11.2614 176.795 11.153L176.795 11.1529Z"
    fill="#002962" />
  <path
    d="M182.712 9.91893H180.619C180.651 10.3835 180.946 10.6158 181.498 10.6158C181.827 10.6227 182.15 10.5362 182.431 10.3665V11.0783C182.071 11.2498 181.673 11.331 181.274 11.3149C180.45 11.3951 179.718 10.7954 179.637 9.97538C179.628 9.88008 179.628 9.78408 179.637 9.68878C179.613 9.22283 179.781 8.7674 180.101 8.42715C180.4 8.12187 180.813 7.95373 181.242 7.96258C181.647 7.93783 182.044 8.08948 182.329 8.37816C182.596 8.69049 182.733 9.09334 182.712 9.50345V9.91903V9.91893ZM181.794 9.31365C181.794 8.85544 181.608 8.62738 181.235 8.62738C181.076 8.62818 180.925 8.70012 180.824 8.82345C180.705 8.96157 180.63 9.1325 180.61 9.31365H181.794H181.794Z"
    fill="#002962" />
  <path
    d="M188.941 11.2356H187.779L187.079 10.0847C187.026 9.99738 186.977 9.91848 186.929 9.85031C186.885 9.7881 186.836 9.72898 186.784 9.67343C186.739 9.62851 186.687 9.59105 186.63 9.56263C186.576 9.535 186.515 9.52109 186.454 9.52218H186.183V11.2271H185.17V6.75146H186.775C187.867 6.75146 188.412 7.1571 188.41 7.96839C188.411 8.11347 188.387 8.25756 188.34 8.3946C188.292 8.52438 188.224 8.64541 188.136 8.75264C188.046 8.86115 187.938 8.95407 187.817 9.0276C187.688 9.10621 187.548 9.16712 187.402 9.20876V9.22158C187.473 9.24334 187.538 9.27723 187.597 9.32175C187.662 9.37173 187.723 9.42658 187.779 9.48581C187.838 9.55001 187.894 9.61768 187.946 9.68823C187.999 9.75859 188.049 9.82885 188.091 9.90139L188.941 11.2356H188.941ZM186.183 7.51445V8.76118H186.621C186.814 8.77062 187.003 8.70315 187.146 8.57367C187.275 8.45104 187.347 8.28042 187.345 8.10264C187.345 7.71051 187.111 7.51445 186.641 7.51445H186.183V7.51445Z"
    fill="#002962" />
  <path
    d="M191.988 9.91848H189.893C189.928 10.3831 190.222 10.6154 190.775 10.6154C191.103 10.6227 191.426 10.5362 191.706 10.3661V11.0779C191.345 11.2494 190.948 11.3306 190.548 11.3145C189.725 11.3935 188.993 10.7928 188.913 9.97254C188.904 9.87804 188.904 9.78284 188.913 9.68834C188.888 9.22218 189.056 8.76616 189.378 8.4267C189.677 8.12122 190.09 7.95299 190.518 7.96213C190.923 7.93719 191.319 8.08883 191.603 8.37771C191.872 8.68934 192.01 9.0925 191.988 9.50301V9.91858L191.988 9.91848ZM191.07 9.3132C191.07 8.85499 190.884 8.62693 190.512 8.62693C190.352 8.62773 190.2 8.69958 190.099 8.823C189.979 8.96112 189.905 9.13205 189.885 9.3132H191.07H191.07Z"
    fill="#002962" />
  <path
    d="M195.639 8.03906L194.445 11.2359H193.317L192.179 8.03906H193.249L193.807 10.0104C193.863 10.1954 193.899 10.3853 193.917 10.5773H193.929C193.952 10.3918 193.991 10.2086 194.045 10.0296L194.616 8.03906H195.639H195.639Z"
    fill="#002962" />
  <path
    d="M198.879 9.91882H196.784C196.818 10.3834 197.112 10.6157 197.666 10.6157C197.994 10.6231 198.317 10.5365 198.597 10.3664V11.0782C198.236 11.2497 197.838 11.3309 197.439 11.3148C196.615 11.3938 195.883 10.7931 195.804 9.97288C195.795 9.87837 195.795 9.78317 195.804 9.68867C195.78 9.22311 195.946 8.76768 196.266 8.42703C196.566 8.12166 196.98 7.95352 197.409 7.96246C197.814 7.93832 198.209 8.08986 198.494 8.37804C198.763 8.68967 198.901 9.09283 198.879 9.50334V9.91892L198.879 9.91882ZM197.959 9.31354C197.959 8.85533 197.773 8.62727 197.403 8.62727C197.242 8.62776 197.091 8.69971 196.99 8.82333C196.87 8.96146 196.795 9.13238 196.775 9.31354H197.959Z"
    fill="#002962" />
  <path
    d="M202.568 11.2357H201.58V9.4604C201.58 8.96592 201.402 8.7166 201.047 8.7166C200.881 8.71203 200.722 8.78546 200.619 8.91485C200.506 9.05596 200.447 9.23304 200.454 9.4136V11.2358H199.463V8.03897H200.454V8.53773H200.467C200.673 8.16488 201.072 7.939 201.498 7.95381C202.212 7.95381 202.569 8.39284 202.568 9.2709V11.2359L202.568 11.2357Z"
    fill="#002962" />
  <path
    d="M206.401 11.236H205.414V10.7501H205.397C205.195 11.1004 204.818 11.3141 204.413 11.3084C203.668 11.3084 203.296 10.8602 203.296 9.96363V8.03271H204.285V9.87618C204.285 10.328 204.464 10.5539 204.824 10.5539C204.988 10.5611 205.146 10.4917 205.252 10.3664C205.365 10.2238 205.422 10.0449 205.412 9.86346V8.03271H206.399L206.401 11.236V11.236Z"
    fill="#002962" />
  <path
    d="M210.118 9.91893H208.025C208.059 10.3835 208.353 10.6158 208.907 10.6158C209.235 10.6232 209.558 10.5366 209.838 10.3665V11.0783C209.477 11.2498 209.079 11.331 208.68 11.3149C207.857 11.3951 207.124 10.7954 207.043 9.97538C207.034 9.88008 207.034 9.78408 207.043 9.68878C207.019 9.22283 207.187 8.7674 207.507 8.42715C207.807 8.12227 208.22 7.95423 208.648 7.96258C209.054 7.93783 209.45 8.08948 209.735 8.37816C210.003 8.69009 210.141 9.09324 210.118 9.50345V9.91903L210.118 9.91893ZM209.2 9.31365C209.2 8.85544 209.014 8.62738 208.644 8.62738C208.483 8.62788 208.332 8.69983 208.231 8.82345C208.111 8.96157 208.037 9.1325 208.017 9.31365H209.2Z"
    fill="#002962" />
  <path
    d="M159.435 23.6567H241.391C242.297 23.6567 243.031 24.3876 243.031 25.2892C243.031 26.1908 242.297 26.9217 241.391 26.9217H159.435C158.53 26.9217 157.796 26.1908 157.796 25.2892C157.796 24.3876 158.53 23.6567 159.435 23.6567Z"
    fill="#002962" />
  <path
    d="M159.435 23.6567H222.825C223.73 23.6567 224.464 24.3876 224.464 25.2892C224.464 26.1908 223.73 26.9217 222.825 26.9217H159.435C158.53 26.9217 157.796 26.1908 157.796 25.2892C157.796 24.3876 158.53 23.6567 159.435 23.6567Z"
    fill="white" />
  <path
    d="M259.703 114.428H169.553C166.58 114.428 164.171 112.028 164.171 109.068V94.731C164.171 92.3617 166.1 90.4409 168.479 90.4409H259.703C262.078 90.4468 264 92.3659 264 94.731V110.138C264 112.507 262.071 114.428 259.692 114.428H259.703L259.703 114.428Z"
    fill="#0078EF" />
  <path d="M208.971 90.0615H194.244V90.654H208.971V90.0615Z" fill="black" />
  <path
    d="M219.564 114.688H169.168C166.268 114.688 163.908 111.372 163.908 107.295V97.5698C163.908 93.4949 166.262 90.1787 169.168 90.1787V90.7008C166.557 90.7008 164.434 93.7826 164.434 97.5698V107.295C164.434 111.084 166.557 114.166 169.168 114.166H219.564V114.688V114.688Z"
    fill="#002962" />
  <path d="M246.303 114.166H235.496V114.688H246.303V114.166Z" fill="#002962" />
  <path
    d="M159.243 77.4614H233.2C235.155 77.4614 236.741 79.0406 236.741 80.9886V90.9862C236.741 93.372 234.799 95.3062 232.403 95.3062H159.243C156.847 95.3062 154.905 93.3721 154.905 90.9863V81.7815C154.905 79.3956 156.847 77.4614 159.243 77.4614H159.243Z"
    fill="#FFC35A" />
  <path
    d="M159.271 95.5472C156.878 95.5448 154.941 93.6117 154.944 91.2293V81.383C154.946 79.0041 156.882 77.076 159.271 77.0737H172.904V77.7131H159.271C157.237 77.7166 155.589 79.3576 155.586 81.383V91.2293C155.589 93.2547 157.237 94.8958 159.271 94.8992V95.5472Z"
    fill="black" />
  <path
    d="M233.088 95.5472H219.436V94.9078H233.088C235.126 94.9078 236.778 93.2628 236.778 91.2336V81.383C236.775 79.3554 235.124 77.7131 233.088 77.7131V77.0737C235.477 77.0761 237.413 79.0041 237.415 81.383V91.2293C237.418 93.6117 235.48 95.5448 233.088 95.5472Z"
    fill="black" />
  <path d="M197.049 77.0737H187.124V77.7131H197.049V77.0737Z" fill="black" />
  <path
    d="M165.992 88.3118H164.824L164.124 87.1588C164.073 87.0715 164.021 86.9948 163.974 86.9265C163.93 86.8639 163.882 86.8046 163.829 86.7496C163.784 86.7036 163.732 86.6654 163.675 86.6366C163.621 86.6109 163.561 86.5978 163.501 86.5983H163.228V88.3032H162.215V83.8276H163.82C164.912 83.8276 165.457 84.234 165.457 85.0467C165.458 85.1919 165.433 85.336 165.385 85.473C165.337 85.6021 165.269 85.7225 165.181 85.8289C165.091 85.9374 164.983 86.0303 164.862 86.1039C164.733 86.1834 164.594 86.2444 164.447 86.285V86.2979C164.517 86.3213 164.583 86.3558 164.642 86.4001C164.707 86.4493 164.768 86.5035 164.824 86.5621C164.882 86.626 164.937 86.6921 164.991 86.7752C165.044 86.8584 165.094 86.918 165.136 86.9884L165.992 88.3119L165.992 88.3118ZM163.234 84.5907V85.8354H163.662C163.855 85.8448 164.043 85.7773 164.186 85.6479C164.317 85.5265 164.39 85.3552 164.387 85.1768C164.387 84.7861 164.152 84.5907 163.681 84.5907H163.234Z"
    fill="#002962" />
  <path
    d="M169.04 86.9945H166.945C166.979 87.459 167.272 87.6893 167.826 87.6893C168.154 87.6966 168.477 87.6101 168.757 87.4399V88.1518C168.397 88.3238 168 88.4058 167.602 88.3905C166.778 88.4707 166.045 87.8711 165.965 87.0511C165.955 86.955 165.955 86.8582 165.964 86.7621C165.94 86.2968 166.108 85.8415 166.429 85.5026C166.727 85.1956 167.141 85.0265 167.569 85.0358C167.975 85.0111 168.372 85.1627 168.657 85.4514C168.925 85.7644 169.062 86.168 169.04 86.5788V86.9944V86.9945ZM168.122 86.3892C168.122 85.931 167.935 85.7008 167.563 85.7008C167.402 85.7018 167.251 85.7746 167.15 85.8991C167.029 86.0363 166.954 86.2077 166.936 86.3893H168.122L168.122 86.3892Z"
    fill="#002962" />
  <path
    d="M172.776 87.9471C172.807 88.4584 172.619 88.9589 172.258 89.324C171.914 89.6507 171.415 89.8142 170.76 89.8142C170.408 89.8297 170.057 89.7664 169.733 89.6287V88.7976C170.034 88.9812 170.379 89.0806 170.732 89.0853C171.016 89.1036 171.296 89.0085 171.509 88.821C171.699 88.6321 171.799 88.3719 171.785 88.105V87.8534H171.772C171.564 88.2024 171.18 88.4088 170.773 88.3906C170.399 88.407 170.038 88.2494 169.797 87.9643C169.543 87.6342 169.415 87.2246 169.437 86.8092C169.412 86.3457 169.554 85.8884 169.838 85.5199C170.096 85.2059 170.487 85.0296 170.895 85.0425C171.247 85.0232 171.583 85.1952 171.772 85.4921H171.785V85.1213H172.776V87.9472L172.776 87.9471ZM171.798 86.7749V86.5234C171.803 86.3348 171.739 86.1509 171.618 86.0055C171.504 85.8655 171.33 85.7866 171.149 85.7923C170.944 85.7852 170.75 85.8813 170.631 86.0481C170.493 86.2623 170.428 86.5146 170.443 86.7685C170.429 86.9957 170.493 87.2208 170.623 87.4079C170.737 87.561 170.92 87.648 171.111 87.6402C171.307 87.643 171.492 87.5508 171.607 87.393C171.741 87.215 171.808 86.9967 171.798 86.7749L171.798 86.7749Z"
    fill="#002962" />
  <path
    d="M174.105 84.6098C173.953 84.615 173.806 84.5614 173.694 84.4607C173.59 84.3682 173.532 84.235 173.535 84.0963C173.531 83.9579 173.589 83.8249 173.694 83.734C173.937 83.5496 174.274 83.5496 174.518 83.734C174.622 83.8254 174.68 83.9581 174.676 84.0963C174.68 84.2364 174.622 84.3711 174.518 84.4649C174.404 84.564 174.256 84.6158 174.105 84.6098ZM174.595 88.3118H173.597V85.1149H174.588L174.595 88.3118Z"
    fill="#002962" />
  <path
    d="M176.957 88.3905C176.493 88.4173 176.038 88.2549 175.697 87.9409C175.077 87.2364 175.084 86.1815 175.714 85.4857C176.066 85.1733 176.527 85.0117 176.998 85.036C177.46 85.0096 177.913 85.1719 178.252 85.4857C178.561 85.8007 178.725 86.2288 178.706 86.6685C178.729 87.1345 178.56 87.5898 178.237 87.928C177.891 88.2478 177.429 88.4147 176.957 88.3905H176.957ZM176.983 85.7925C176.773 85.7811 176.57 85.8706 176.437 86.0333C176.296 86.2308 176.227 86.4709 176.243 86.7132C176.243 87.327 176.492 87.6339 176.989 87.6339C177.462 87.6339 177.698 87.3185 177.7 86.6877C177.7 86.0909 177.461 85.7925 176.983 85.7925H176.983Z"
    fill="#002962" />
  <path
    d="M182.453 88.3118H181.466V86.5407C181.466 86.0463 181.289 85.7991 180.933 85.7991C180.768 85.7943 180.609 85.8669 180.505 85.9952C180.391 86.1359 180.332 86.3131 180.338 86.4939V88.3182H179.348V85.1214H180.338V85.6265H180.351C180.558 85.2544 180.956 85.0288 181.383 85.0426C182.096 85.0426 182.453 85.4816 182.453 86.3597V88.3119V88.3118Z"
    fill="#002962" />
  <path
    d="M185.907 88.3118H184.969V87.8536H184.956C184.766 88.1982 184.397 88.4062 184.002 88.3907C183.731 88.4049 183.465 88.3096 183.266 88.1264C183.083 87.9379 182.986 87.6827 182.998 87.421C182.998 86.8015 183.367 86.4463 184.105 86.3554L184.976 86.2382C184.976 85.8887 184.785 85.7139 184.406 85.7139C184.016 85.7156 183.636 85.8345 183.315 86.0548V85.3046C183.495 85.22 183.685 85.1571 183.88 85.1171C184.095 85.0665 184.314 85.0393 184.535 85.0361C185.448 85.0361 185.905 85.4908 185.907 86.4001V88.3119L185.907 88.3118ZM184.976 87.0138V86.8007L184.394 86.8774C184.071 86.9179 183.91 87.0628 183.91 87.3036C183.907 87.4086 183.95 87.5095 184.028 87.5807C184.116 87.656 184.231 87.6942 184.347 87.6872C184.519 87.6928 184.685 87.6226 184.8 87.4954C184.919 87.3633 184.982 87.1908 184.976 87.0138L184.976 87.0138Z"
    fill="#002962" />
  <path d="M187.681 88.3116H186.69V83.5781H187.681V88.3116Z" fill="#002962" />
  <path
    d="M191.396 86.7685V88.3115H190.384V83.8359H191.969C193.103 83.8359 193.67 84.3119 193.668 85.2638C193.682 85.6827 193.502 86.0848 193.18 86.355C192.814 86.6511 192.351 86.8028 191.879 86.7813L191.396 86.7684V86.7685ZM191.396 84.6096V86.0034H191.787C192.327 86.0034 192.596 85.7683 192.596 85.2979C192.596 84.8276 192.327 84.5981 191.787 84.6096H191.396Z"
    fill="#002962" />
  <path
    d="M196.324 86.0035C196.192 85.9357 196.044 85.9026 195.896 85.9076C195.699 85.8995 195.51 85.9878 195.391 86.1442C195.261 86.3316 195.197 86.5563 195.209 86.7835V88.3095H194.218V85.1127H195.211V85.7051H195.224C195.324 85.3188 195.68 85.0531 196.08 85.0658C196.163 85.0615 196.246 85.0738 196.324 85.102V86.0036L196.324 86.0035Z"
    fill="#002962" />
  <path
    d="M198.288 88.3905C197.824 88.4173 197.369 88.2549 197.028 87.9409C196.408 87.2364 196.415 86.1815 197.045 85.4857C197.397 85.1733 197.858 85.0117 198.329 85.036C198.791 85.0096 199.244 85.1719 199.583 85.4857C199.892 85.8007 200.056 86.2288 200.037 86.6685C200.06 87.1345 199.891 87.5898 199.568 87.928C199.222 88.2478 198.76 88.4147 198.289 88.3905H198.288ZM198.314 85.7925C198.104 85.7815 197.901 85.8709 197.768 86.0333C197.628 86.2313 197.559 86.471 197.574 86.7132C197.574 87.327 197.824 87.6339 198.32 87.6339C198.817 87.6339 199.033 87.3185 199.033 86.6877C199.033 86.0909 198.793 85.7925 198.314 85.7925V85.7925Z"
    fill="#002962" />
  <path
    d="M203.825 88.3115H202.834V87.8703C202.62 88.2093 202.24 88.4079 201.839 88.3904C201.468 88.4025 201.112 88.2456 200.871 87.9642C200.608 87.6287 200.477 87.2086 200.503 86.7835C200.479 86.3227 200.623 85.8687 200.908 85.5048C201.168 85.1911 201.559 85.0148 201.967 85.0274C202.318 84.9951 202.656 85.1679 202.834 85.4707V83.5781H203.825V88.3116L203.825 88.3115ZM202.853 86.7557V86.517C202.86 86.3271 202.795 86.1415 202.671 85.997C202.43 85.7379 202.024 85.7223 201.764 85.9622C201.735 85.989 201.708 86.0185 201.685 86.0502C201.55 86.26 201.484 86.5068 201.498 86.7557C201.486 86.9827 201.549 87.2075 201.678 87.395C201.796 87.5462 201.98 87.6311 202.173 87.6231C202.366 87.6264 202.549 87.5367 202.665 87.3823C202.796 87.1997 202.863 86.9783 202.853 86.7536V86.7557V86.7557Z"
    fill="#002962" />
  <path
    d="M207.709 88.3118H206.722V87.8195H206.707C206.506 88.1711 206.131 88.3878 205.725 88.3865C204.98 88.3865 204.61 87.9368 204.61 87.0396V85.1108H205.596V86.9671C205.596 87.419 205.776 87.6449 206.136 87.6449C206.299 87.6519 206.457 87.5835 206.564 87.4594C206.677 87.3162 206.734 87.1366 206.724 86.9543V85.1257H207.711L207.709 88.3119L207.709 88.3118Z"
    fill="#002962" />
  <path
    d="M210.976 88.1967C210.675 88.342 210.341 88.4087 210.007 88.3907C209.563 88.4092 209.131 88.2477 208.808 87.9431C208.502 87.6394 208.337 87.2224 208.353 86.7923C208.329 86.3166 208.507 85.8529 208.843 85.5136C209.199 85.1886 209.672 85.0191 210.154 85.0425C210.437 85.0232 210.719 85.0752 210.976 85.1939V86.0293C210.777 85.8786 210.533 85.7978 210.283 85.7992C210.033 85.7866 209.789 85.8759 209.607 86.0464C209.434 86.2321 209.344 86.4799 209.358 86.7327C209.344 86.9772 209.43 87.217 209.596 87.3976C209.771 87.566 210.008 87.6541 210.251 87.6405C210.51 87.6365 210.762 87.5564 210.976 87.4104V88.1968L210.976 88.1967Z"
    fill="#002962" />
  <path
    d="M213.566 88.2733C213.357 88.3626 213.131 88.4027 212.904 88.3906C212.205 88.3906 211.856 88.0289 211.856 87.3058V85.8416H211.336V85.1149H211.856V84.4244L212.844 84.1431V85.1149H213.566V85.8416H212.844V87.1353C212.844 87.4678 212.977 87.634 213.242 87.634C213.356 87.6316 213.467 87.6008 213.565 87.5445V88.2734L213.566 88.2733Z"
    fill="#002962" />
  <path
    d="M215.785 88.1391V87.1417C215.961 87.2894 216.161 87.4049 216.378 87.4827C216.583 87.5574 216.801 87.5956 217.02 87.5957C217.132 87.5978 217.244 87.5863 217.353 87.5616C217.438 87.5444 217.519 87.5127 217.593 87.4678C217.651 87.4318 217.7 87.382 217.734 87.3229C217.766 87.2684 217.782 87.2066 217.781 87.1438C217.783 87.0596 217.757 86.9771 217.707 86.9094C217.648 86.8335 217.575 86.7691 217.493 86.7197C217.395 86.6548 217.292 86.5985 217.184 86.5514C217.065 86.4959 216.936 86.4406 216.799 86.3851C216.498 86.2742 216.228 86.0913 216.014 85.8523C215.839 85.6367 215.747 85.3662 215.755 85.0893C215.738 84.6829 215.938 84.2977 216.279 84.0748C216.451 83.9626 216.642 83.8818 216.842 83.8361C217.064 83.7839 217.292 83.7582 217.52 83.7594C217.728 83.7579 217.935 83.7721 218.141 83.802C218.312 83.8266 218.48 83.8702 218.642 83.932V84.8655C218.564 84.8118 218.482 84.7654 218.396 84.727C218.307 84.688 218.215 84.6552 218.122 84.6289C218.03 84.6039 217.936 84.5846 217.841 84.5714C217.753 84.559 217.665 84.5526 217.576 84.5522C217.471 84.5506 217.366 84.562 217.264 84.5863C217.179 84.6032 217.098 84.6342 217.024 84.6779C216.964 84.7128 216.913 84.7609 216.874 84.8185C216.838 84.8742 216.819 84.9396 216.821 85.006C216.819 85.0774 216.84 85.1473 216.881 85.2063C216.926 85.2721 216.984 85.3292 217.05 85.3747C217.133 85.4346 217.222 85.4867 217.315 85.5303C217.42 85.5815 217.529 85.6347 217.67 85.688C217.837 85.7575 217.998 85.838 218.154 85.9288C218.29 86.0058 218.414 86.102 218.522 86.2144C218.624 86.3179 218.705 86.4413 218.757 86.5767C218.815 86.7291 218.843 86.8912 218.839 87.0541C218.848 87.2758 218.799 87.4962 218.697 87.6935C218.604 87.86 218.471 88.0012 218.31 88.1048C218.136 88.2144 217.943 88.291 217.741 88.3306C217.516 88.3784 217.286 88.4021 217.056 88.401C216.82 88.4019 216.584 88.3805 216.352 88.3371C216.154 88.2986 215.963 88.232 215.785 88.1388L215.785 88.1391Z"
    fill="#002962" />
  <path
    d="M222.175 88.3118H221.237V87.8536H221.224C221.033 88.1979 220.663 88.4055 220.268 88.3907C219.997 88.4051 219.732 88.3097 219.534 88.1264C219.35 87.9387 219.252 87.6832 219.264 87.421C219.264 86.8008 219.634 86.4428 220.371 86.3554L221.244 86.2382C221.244 85.8887 221.053 85.7139 220.672 85.7139C220.282 85.7156 219.902 85.8345 219.581 86.0548V85.3046C219.762 85.2204 219.952 85.1574 220.148 85.1171C220.358 85.0671 220.574 85.04 220.79 85.0361C221.706 85.0361 222.164 85.4908 222.164 86.4001L222.174 88.3119L222.175 88.3118ZM221.244 87.0138V86.8007L220.66 86.8774C220.339 86.9179 220.178 87.0628 220.178 87.3036C220.175 87.4083 220.217 87.5093 220.294 87.5807C220.382 87.6556 220.496 87.6938 220.612 87.6872C220.785 87.6928 220.952 87.6227 221.068 87.4954C221.182 87.3612 221.241 87.1892 221.233 87.0138H221.244L221.244 87.0138Z"
    fill="#002962" />
  <path d="M223.938 88.3116H222.947V83.5781H223.938V88.3116Z" fill="#002962" />
  <path
    d="M227.655 86.9945H225.562C225.594 87.459 225.887 87.6893 226.442 87.6893C226.77 87.6966 227.093 87.6101 227.373 87.4399V88.1518C227.013 88.3241 226.616 88.4061 226.217 88.3905C225.394 88.4707 224.661 87.8711 224.58 87.0511C224.571 86.955 224.571 86.8582 224.58 86.7621C224.555 86.2968 224.723 85.8415 225.044 85.5026C225.343 85.1956 225.756 85.0265 226.185 85.0358C226.591 85.0111 226.987 85.1627 227.272 85.4514C227.54 85.7644 227.677 86.168 227.655 86.5788V86.9944V86.9945ZM226.737 86.3892C226.737 85.931 226.551 85.7008 226.179 85.7008C226.018 85.7015 225.867 85.7745 225.768 85.8991C225.646 86.0359 225.571 86.2074 225.554 86.3893H226.737L226.737 86.3892Z"
    fill="#002962" />
  <path
    d="M228.034 88.2262V87.427C228.187 87.518 228.351 87.5895 228.522 87.6401C228.671 87.6857 228.826 87.7102 228.982 87.7126C229.124 87.7179 229.265 87.6933 229.397 87.6401C229.486 87.6064 229.546 87.5222 229.549 87.427C229.549 87.3679 229.524 87.3116 229.48 87.2713C229.427 87.2269 229.367 87.1904 229.303 87.1626C229.226 87.1293 229.146 87.1009 229.065 87.0774C228.98 87.0539 228.898 87.0241 228.819 86.9943C228.703 86.9513 228.59 86.8993 228.481 86.8387C228.39 86.7876 228.308 86.7229 228.237 86.6469C228.171 86.5737 228.12 86.4882 228.087 86.3954C228.049 86.2858 228.031 86.1703 228.034 86.0544C228.03 85.8925 228.071 85.7327 228.152 85.5919C228.23 85.4632 228.338 85.3544 228.466 85.2743C228.605 85.1907 228.756 85.1295 228.914 85.0932C229.086 85.0543 229.263 85.0351 229.44 85.0357C229.583 85.0359 229.726 85.0472 229.868 85.0697C230.013 85.0918 230.155 85.1231 230.296 85.1636V85.9265C230.17 85.854 230.034 85.7987 229.894 85.7625C229.754 85.7261 229.61 85.7075 229.466 85.707C229.404 85.707 229.342 85.7127 229.282 85.7241C229.229 85.735 229.178 85.7521 229.13 85.7753C229.089 85.7934 229.053 85.8221 229.027 85.8584C229.002 85.8922 228.988 85.9334 228.988 85.9756C228.987 86.0312 229.007 86.0851 229.044 86.127C229.087 86.1708 229.137 86.2069 229.192 86.2335C229.261 86.2663 229.332 86.2934 229.406 86.3145L229.62 86.3891C229.742 86.431 229.862 86.4808 229.977 86.5383C230.077 86.5877 230.17 86.6516 230.251 86.728C230.327 86.7997 230.387 86.887 230.427 86.9838C230.47 87.0952 230.491 87.2139 230.489 87.3333C230.493 87.5035 230.45 87.6717 230.365 87.8192C230.283 87.9531 230.17 88.0656 230.035 88.1474C229.889 88.2353 229.729 88.2973 229.562 88.3307C229.379 88.3701 229.193 88.3902 229.006 88.3904C228.675 88.3919 228.346 88.3364 228.034 88.2262H228.034Z"
    fill="#002962" />
  <path
    d="M256.05 100.73H174.094C173.189 100.73 172.455 101.461 172.455 102.363C172.455 103.265 173.189 103.995 174.094 103.995H256.05C256.955 103.995 257.689 103.265 257.689 102.363C257.689 101.461 256.955 100.73 256.05 100.73Z"
    fill="#002962" />
  <path
    d="M215.273 100.73H174.094C173.189 100.73 172.455 101.461 172.455 102.363C172.455 103.265 173.189 103.995 174.094 103.995H215.273C216.178 103.995 216.912 103.265 216.912 102.363C216.912 101.461 216.178 100.73 215.273 100.73Z"
    fill="white" />
  <path
    d="M245.068 182.74H154.909C151.939 182.734 149.536 180.333 149.538 177.376V163.039C149.54 160.674 151.465 158.756 153.839 158.753H245.068C247.447 158.753 249.376 160.674 249.376 163.043V178.441C249.38 180.811 247.456 182.735 245.076 182.74H245.068L245.068 182.74Z"
    fill="#0078EF" />
  <path d="M194.334 158.374H179.609V158.966H194.334V158.374Z" fill="black" />
  <path
    d="M204.929 183H154.533C151.633 183 149.275 179.684 149.275 175.609V165.884C149.275 161.807 151.629 158.491 154.533 158.491V159.013C151.922 159.013 149.799 162.097 149.799 165.884V175.609C149.799 179.396 151.922 182.478 154.533 182.478H204.929V183V183Z"
    fill="#002962" />
  <path d="M231.667 182.478H220.861V183H231.667V182.478Z" fill="#002962" />
  <path
    d="M144.404 145.776H219.151C220.783 145.776 222.106 147.094 222.106 148.719V160.665C222.106 162.29 220.783 163.608 219.151 163.608H144.533C142.178 163.608 140.27 161.707 140.27 159.362V149.891C140.27 147.618 142.12 145.776 144.402 145.776H144.404V145.776Z"
    fill="#FFC35A" />
  <path
    d="M144.636 163.859C142.247 163.857 140.311 161.929 140.309 159.55V149.697C140.311 147.319 142.247 145.39 144.636 145.388H158.269V146.028H144.636C142.601 146.03 140.953 147.672 140.951 149.697V159.55C140.953 161.576 142.601 163.218 144.636 163.22V163.859V163.859Z"
    fill="black" />
  <path
    d="M218.458 163.859H204.805V163.22H218.458C220.492 163.219 222.141 161.576 222.143 159.55V149.697C222.141 147.671 220.492 146.029 218.458 146.028V145.388C220.846 145.391 222.782 147.319 222.785 149.697V159.55C222.782 161.929 220.846 163.857 218.458 163.859V163.859Z"
    fill="black" />
  <path d="M182.414 145.388H172.489V146.028H182.414V145.388Z" fill="black" />
  <path
    d="M163.189 156.624H162.189V153.947C162.189 153.663 162.202 153.343 162.228 152.988H162.202C162.169 153.189 162.122 153.387 162.061 153.581L161.008 156.624H160.18L159.11 153.612C159.082 153.532 159.035 153.323 158.969 152.988H158.941C158.969 153.429 158.982 153.817 158.982 154.15V156.624H158.07V152.148H159.553L160.471 154.802C160.543 155.01 160.596 155.224 160.632 155.441H160.649C160.706 155.194 160.766 154.981 160.829 154.802L161.747 152.155H163.191L163.189 156.624L163.189 156.624Z"
    fill="#002962" />
  <path
    d="M165.643 156.703C165.18 156.729 164.725 156.567 164.383 156.255C163.763 155.55 163.77 154.494 164.4 153.798C164.753 153.487 165.214 153.326 165.684 153.35C166.146 153.325 166.598 153.486 166.938 153.798C167.247 154.113 167.412 154.542 167.392 154.983C167.417 155.448 167.247 155.904 166.923 156.24C166.577 156.561 166.115 156.728 165.644 156.703H165.643ZM165.68 154.1C165.47 154.09 165.268 154.18 165.134 154.341C164.993 154.539 164.925 154.779 164.939 155.021C164.939 155.635 165.19 155.944 165.686 155.944C166.183 155.944 166.399 155.629 166.399 154.998C166.399 154.367 166.148 154.1 165.68 154.1V154.1Z"
    fill="#002962" />
  <path
    d="M171.139 156.624H170.152V154.848C170.152 154.352 169.975 154.105 169.619 154.105C169.453 154.1 169.295 154.173 169.191 154.303C169.077 154.443 169.017 154.621 169.025 154.802V156.624H168.034V153.427H169.022V153.934H169.035C169.242 153.562 169.64 153.336 170.067 153.35C170.78 153.35 171.137 153.789 171.137 154.667L171.139 156.624L171.139 156.624Z"
    fill="#002962" />
  <path
    d="M173.863 156.588C173.655 156.677 173.428 156.716 173.202 156.703C172.504 156.703 172.155 156.342 172.155 155.62V154.156H171.635V153.427H172.155V152.739L173.142 152.458V153.427H173.863V154.156H173.142V155.448C173.142 155.78 173.275 155.948 173.54 155.948C173.654 155.945 173.765 155.914 173.863 155.857V156.588V156.588Z"
    fill="#002962" />
  <path
    d="M177.503 156.624H176.516V154.808C176.516 154.339 176.343 154.105 176.001 154.105C175.834 154.099 175.676 154.173 175.573 154.303C175.46 154.444 175.402 154.621 175.41 154.802V156.624H174.419V151.893H175.41V153.902H175.423C175.628 153.555 176.005 153.344 176.409 153.35C177.137 153.35 177.501 153.787 177.501 154.661L177.503 156.624V156.624Z"
    fill="#002962" />
  <path d="M179.277 156.624H178.286V151.893H179.277V156.624Z" fill="#002962" />
  <path
    d="M183.167 153.427L181.864 156.882C181.549 157.711 181.076 158.126 180.445 158.126C180.245 158.132 180.046 158.104 179.855 158.045V157.259C179.984 157.335 180.132 157.375 180.283 157.374C180.521 157.386 180.739 157.239 180.816 157.014L180.985 156.617L179.681 153.42H180.779L181.376 155.366C181.419 155.505 181.448 155.648 181.464 155.792H181.477C181.501 155.648 181.536 155.505 181.582 155.366L182.185 153.414L183.167 153.427V153.427Z"
    fill="#002962" />
  <path
    d="M187.334 156.703C186.744 156.724 186.172 156.497 185.759 156.076C185.345 155.636 185.126 155.048 185.151 154.446C185.123 153.814 185.345 153.197 185.77 152.728C186.195 152.286 186.79 152.048 187.404 152.074C187.99 152.05 188.557 152.279 188.962 152.7C189.371 153.152 189.584 153.747 189.555 154.354C189.585 154.981 189.363 155.595 188.939 156.059C188.521 156.492 187.936 156.726 187.334 156.703H187.334ZM187.377 152.941C187.047 152.928 186.731 153.077 186.531 153.34C186.309 153.644 186.198 154.016 186.217 154.392C186.196 154.769 186.307 155.141 186.531 155.445C186.727 155.697 187.032 155.84 187.351 155.831C187.673 155.845 187.981 155.705 188.184 155.456C188.403 155.153 188.511 154.784 188.49 154.412C188.513 154.028 188.409 153.647 188.192 153.329C188.001 153.073 187.696 152.928 187.377 152.941L187.377 152.941Z"
    fill="#002962" />
  <path
    d="M192.299 154.314C192.17 154.247 192.026 154.213 191.881 154.216C191.684 154.208 191.496 154.296 191.376 154.452C191.247 154.64 191.183 154.865 191.194 155.092V156.618H190.204V153.421H191.194V154.015H191.207C191.364 153.589 191.65 153.376 192.063 153.376C192.146 153.372 192.229 153.385 192.307 153.414L192.299 154.314L192.299 154.314Z"
    fill="#002962" />
  <path
    d="M195.875 156.624H194.884V156.185H194.873C194.659 156.523 194.279 156.721 193.878 156.703C193.507 156.716 193.151 156.558 192.911 156.276C192.647 155.941 192.516 155.521 192.543 155.096C192.517 154.635 192.661 154.18 192.947 153.817C193.209 153.499 193.605 153.323 194.017 153.34C194.364 153.31 194.698 153.483 194.873 153.783H194.884V151.882H195.875V156.624L195.875 156.624ZM194.903 155.07V154.829C194.91 154.64 194.845 154.455 194.721 154.311C194.605 154.172 194.43 154.093 194.248 154.098C194.044 154.092 193.851 154.189 193.735 154.356C193.6 154.566 193.534 154.814 193.548 155.063C193.534 155.294 193.597 155.523 193.728 155.713C193.959 155.982 194.364 156.013 194.633 155.784C194.663 155.759 194.69 155.731 194.715 155.701C194.847 155.517 194.913 155.295 194.903 155.07V155.07Z"
    fill="#002962" />
  <path
    d="M199.594 155.307H197.499C197.533 155.771 197.827 156.004 198.38 156.004C198.708 156.011 199.031 155.924 199.311 155.754V156.466C198.95 156.638 198.553 156.719 198.153 156.703C197.33 156.782 196.598 156.181 196.519 155.361C196.509 155.266 196.509 155.171 196.518 155.076C196.494 154.611 196.661 154.155 196.981 153.815C197.281 153.509 197.694 153.341 198.123 153.35C198.528 153.326 198.924 153.477 199.208 153.766C199.478 154.077 199.616 154.481 199.594 154.891V155.307L199.594 155.307ZM198.673 154.701C198.673 154.243 198.489 154.015 198.117 154.015C197.957 154.016 197.805 154.088 197.704 154.211C197.585 154.349 197.51 154.52 197.49 154.701H198.673V154.701Z"
    fill="#002962" />
  <path
    d="M202.273 154.314C202.144 154.247 202.001 154.213 201.856 154.216C201.659 154.207 201.47 154.296 201.351 154.452C201.22 154.639 201.156 154.864 201.169 155.092V156.618H200.178V153.421H201.169V154.015H201.182C201.339 153.589 201.624 153.376 202.038 153.376C202.121 153.373 202.205 153.386 202.284 153.414L202.273 154.314L202.273 154.314Z"
    fill="#002962" />
  <path
    d="M202.564 156.541V155.742C202.717 155.833 202.881 155.905 203.052 155.955C203.201 156.001 203.356 156.026 203.512 156.027C203.654 156.034 203.796 156.009 203.927 155.955C204.017 155.922 204.078 155.837 204.079 155.742C204.079 155.683 204.054 155.626 204.011 155.586C203.958 155.54 203.898 155.502 203.833 155.475C203.756 155.443 203.676 155.415 203.595 155.392C203.51 155.367 203.429 155.339 203.349 155.307C203.233 155.266 203.119 155.214 203.011 155.154C202.921 155.102 202.838 155.038 202.767 154.962C202.701 154.888 202.65 154.802 202.618 154.708C202.579 154.599 202.561 154.483 202.564 154.367C202.56 154.206 202.601 154.047 202.682 153.907C202.76 153.778 202.868 153.669 202.996 153.589C203.134 153.504 203.285 153.443 203.444 153.408C203.616 153.369 203.793 153.35 203.97 153.351C204.113 153.351 204.256 153.362 204.398 153.383C204.543 153.404 204.686 153.436 204.826 153.478V154.239C204.7 154.166 204.565 154.111 204.424 154.075C204.284 154.04 204.14 154.022 203.996 154.022C203.934 154.021 203.872 154.027 203.812 154.039C203.759 154.048 203.708 154.065 203.66 154.088C203.619 154.108 203.584 154.137 203.557 154.173C203.531 154.207 203.518 154.248 203.519 154.291C203.517 154.346 203.537 154.399 203.574 154.44C203.617 154.484 203.667 154.521 203.722 154.549C203.788 154.58 203.856 154.607 203.925 154.63L204.139 154.702C204.261 154.745 204.38 154.795 204.497 154.851C204.596 154.902 204.689 154.967 204.77 155.043C204.847 155.115 204.907 155.202 204.946 155.299C204.99 155.41 205.011 155.529 205.008 155.648C205.012 155.818 204.969 155.987 204.884 156.134C204.802 156.267 204.689 156.379 204.554 156.46C204.409 156.549 204.249 156.612 204.081 156.646C203.898 156.684 203.712 156.704 203.525 156.703C203.198 156.704 202.873 156.649 202.564 156.541L202.564 156.541Z"
    fill="#002962" />
  <path
    d="M241.415 169.044H159.459C158.553 169.044 157.82 169.775 157.82 170.677C157.82 171.579 158.553 172.309 159.459 172.309H241.415C242.32 172.309 243.054 171.579 243.054 170.677C243.054 169.775 242.32 169.044 241.415 169.044Z"
    fill="#002962" />
  <path
    d="M183.155 169.044H159.459C158.553 169.044 157.82 169.775 157.82 170.677C157.82 171.579 158.553 172.309 159.459 172.309H183.155C184.06 172.309 184.794 171.579 184.794 170.677C184.794 169.775 184.06 169.044 183.155 169.044Z"
    fill="white" />
</svg>