<svg id="Group_1325" data-name="Group 1325" xmlns="http://www.w3.org/2000/svg" xmlns:xlink="http://www.w3.org/1999/xlink" width="538.242" height="323.38" viewBox="0 0 538.242 323.38">
  <defs>
    <clipPath id="clip-path">
      <rect id="Rectangle_52" data-name="Rectangle 52" width="538.242" height="323.38" fill="none"/>
    </clipPath>
  </defs>
  <g id="Group_1324" data-name="Group 1324" clip-path="url(#clip-path)">
    <path id="Path_359" data-name="Path 359" d="M416.365,175.457H405.62a69.477,69.477,0,0,1-69.477-69.477V25.758h149.7V105.98a69.477,69.477,0,0,1-69.477,69.477" transform="translate(-139.143 -10.662)" fill="#17365d"/>
    <path id="Path_360" data-name="Path 360" d="M485.842,418.342h-149.7V338.12a69.477,69.477,0,0,1,69.477-69.477h10.745a69.477,69.477,0,0,1,69.477,69.477Z" transform="translate(-139.144 -111.203)" fill="#132e51"/>
    <path id="Path_361" data-name="Path 361" d="M346.144,433.4s15.457-32.932,39.637-26.3c61.261,16.812,82.7-7.312,98.341,0l-14.885,38.192-90.676,5.563Z" transform="translate(-143.284 -167.928)" fill="#f5b900"/>
    <path id="Path_362" data-name="Path 362" d="M346.144,476.072V434.4s52.785,19.362,137.978-26.3V481.53Z" transform="translate(-143.284 -168.932)" fill="#f9e093"/>
    <rect id="Rectangle_50" data-name="Rectangle 50" width="217.738" height="18.027" transform="translate(162.98 0)" fill="#277cf3"/>
    <rect id="Rectangle_51" data-name="Rectangle 51" width="217.738" height="18.027" transform="translate(162.98 304.208)" fill="#277cf3"/>
    <path id="Path_363" data-name="Path 363" d="M278.1,0h16.759l17.261,18.027H278.1Z" transform="translate(-115.116 0)" fill="#104184"/>
    <path id="Path_364" data-name="Path 364" d="M616.486,519.076H593.913L569.567,537.1h46.919Z" transform="translate(-235.768 -214.868)" fill="#104184"/>
    <path id="Path_365" data-name="Path 365" d="M545.01,362.884a8.572,8.572,0,1,1-8.572-8.572,8.573,8.573,0,0,1,8.572,8.572" transform="translate(-218.506 -146.665)" fill="#f5b900"/>
    <path id="Path_366" data-name="Path 366" d="M354.144,45.665h19.535v72.227a69.12,69.12,0,0,0,21.706,50.293l-4.611-2.467A69.119,69.119,0,0,1,354.64,112.03Z" transform="translate(-146.595 -18.903)" fill="#1c4476"/>
    <path id="Path_367" data-name="Path 367" d="M530.1,175.7h-7.2v26.61a25.463,25.463,0,0,1-8,18.529l1.7-.908a25.465,25.465,0,0,0,13.312-19.78Z" transform="translate(-205.543 -72.73)" fill="#1c4476"/>
    <line id="Line_12" data-name="Line 12" x2="200.875" transform="translate(0.879 322.501)" fill="none" stroke="#1d4579" stroke-linecap="round" stroke-linejoin="round" stroke-width="3"/>
    <line id="Line_13" data-name="Line 13" x2="218.462" transform="translate(271.861 322.501)" fill="none" stroke="#1d4579" stroke-linecap="round" stroke-linejoin="round" stroke-width="3"/>
    <line id="Line_14" data-name="Line 14" x2="21.468" transform="translate(226.074 322.501)" fill="none" stroke="#1d4579" stroke-linecap="round" stroke-linejoin="round" stroke-width="3"/>
    <line id="Line_15" data-name="Line 15" x2="32.675" transform="translate(504.688 322.501)" fill="none" stroke="#1d4579" stroke-linecap="round" stroke-linejoin="round" stroke-width="3"/>
    <g id="Group_1326" data-name="Group 1326" transform="translate(239 51.765)">
      <g id="Group_528" data-name="Group 528" transform="translate(0 34.534)">
        <path id="Path_1" data-name="Path 1" d="M408.3,183.909a6.88,6.88,0,0,1-2.72-2.253,5.521,5.521,0,0,1,1.237-7.6,13.274,13.274,0,0,1,6.13-2.307l5.561-.812v-.852a3.639,3.639,0,0,0-.893-2.679,3.957,3.957,0,0,0-2.884-.893,4.121,4.121,0,0,0-2.172.508,7.052,7.052,0,0,0-1.32,1q-.489.528-.65.689a.613.613,0,0,1-.609.487h-3.122a.9.9,0,0,1-.63-.244.842.842,0,0,1-.264-.649,4.394,4.394,0,0,1,1-2.307,7.514,7.514,0,0,1,2.943-2.232,11.387,11.387,0,0,1,4.871-.933q4.789,0,6.981,2.15a7.551,7.551,0,0,1,2.192,5.643V183.37a.977.977,0,0,1-.268.684.923.923,0,0,1-.71.288h-3.288a.97.97,0,0,1-.975-.975v-1.586a6.638,6.638,0,0,1-2.537,2.131,8.954,8.954,0,0,1-4.08.832A8.633,8.633,0,0,1,408.3,183.909Zm8.829-4.485a5.883,5.883,0,0,0,1.422-4.263v-.852l-4.06.649a8.847,8.847,0,0,0-3.552,1.178,2.367,2.367,0,0,0-1.2,1.989,2.308,2.308,0,0,0,1.1,2.029,4.645,4.645,0,0,0,2.639.731,4.891,4.891,0,0,0,3.653-1.462Z" transform="translate(-404.59 -162.82)" fill="#fff"/>
        <path id="Path_2" data-name="Path 2" d="M571.86,182.2a9.413,9.413,0,0,1-2.822-6.863L569,173.72l.04-1.624a9.417,9.417,0,0,1,2.822-6.86,10.045,10.045,0,0,1,7.124-2.476,11.64,11.64,0,0,1,5.379,1.136,8.432,8.432,0,0,1,3.288,2.78,6.387,6.387,0,0,1,1.154,3.1.791.791,0,0,1-.264.691,1.009,1.009,0,0,1-.711.288h-3.572a.96.96,0,0,1-.629-.183,1.73,1.73,0,0,1-.433-.629,4.693,4.693,0,0,0-1.6-2.273,4.43,4.43,0,0,0-2.532-.7,4.131,4.131,0,0,0-3.248,1.32,6.141,6.141,0,0,0-1.258,4l-.04,1.5.04,1.34q.16,5.319,4.505,5.318a4.325,4.325,0,0,0,2.558-.691,4.841,4.841,0,0,0,1.586-2.273,1.752,1.752,0,0,1,.433-.63.969.969,0,0,1,.629-.182h3.572a1.01,1.01,0,0,1,.711.288.789.789,0,0,1,.264.689,6.361,6.361,0,0,1-1.136,3.046,8.572,8.572,0,0,1-3.25,2.8,11.389,11.389,0,0,1-5.44,1.177A10.044,10.044,0,0,1,571.86,182.2Z" transform="translate(-545.767 -162.76)" fill="#fff"/>
        <path id="Path_3" data-name="Path 3" d="M732.013,182.123a10.4,10.4,0,0,1-2.822-7.369l-.04-1.009.04-1.01a10.465,10.465,0,0,1,2.863-7.267,9.656,9.656,0,0,1,7.124-2.638,9.433,9.433,0,0,1,7.408,2.922,11.23,11.23,0,0,1,2.619,7.787v.852a.943.943,0,0,1-.288.691,1,1,0,0,1-.731.288H734.712v.319a6.4,6.4,0,0,0,1.238,3.75,3.8,3.8,0,0,0,3.187,1.521,4.657,4.657,0,0,0,3.856-1.868,2.439,2.439,0,0,1,.588-.568,1.443,1.443,0,0,1,.671-.121h3.49a.949.949,0,0,1,.63.223.691.691,0,0,1,.264.548,3.782,3.782,0,0,1-1.154,2.293,9.567,9.567,0,0,1-3.312,2.3,12.006,12.006,0,0,1-4.993.973A9.764,9.764,0,0,1,732.013,182.123Zm11.67-10.17v-.121a5.9,5.9,0,0,0-1.2-3.858,4.043,4.043,0,0,0-3.308-1.461,3.986,3.986,0,0,0-3.288,1.461,5.965,5.965,0,0,0-1.177,3.858v.121Z" transform="translate(-683.291 -162.82)" fill="#fff"/>
      </g>
      <path id="Path_4" data-name="Path 4" d="M146.567,133.63l-13.207,9.9a1.656,1.656,0,0,0-.66,1.321V159.3a1.651,1.651,0,0,0,2.639,1.32l12.216-9.162,12.215,9.162a1.651,1.651,0,0,0,2.642-1.32V144.855a1.656,1.656,0,0,0-.661-1.321l-13.207-9.9A1.651,1.651,0,0,0,146.567,133.63Z" transform="translate(-113.379 -133.301)" fill="#fff"/>
    </g>
  </g>
</svg>
