<svg id="Group_531" data-name="Group 531" xmlns="http://www.w3.org/2000/svg" xmlns:xlink="http://www.w3.org/1999/xlink" width="513.387" height="360.403" viewBox="0 0 513.387 360.403">
  <defs>
    <clipPath id="clip-path">
      <rect id="Rectangle_49" data-name="Rectangle 49" width="513.387" height="360.403" fill="none"/>
    </clipPath>
  </defs>
  <g id="Group_530" data-name="Group 530" clip-path="url(#clip-path)">
    <path id="Path_192" data-name="Path 192" d="M670.674,136.3s-12.034-3.393-18.115-10.818l5.185-4.609,13.571,6.785Z" transform="translate(-294.8 -54.606)"/>
    <path id="Path_193" data-name="Path 193" d="M675.656,450.59l.916,4.359a2.2,2.2,0,0,1-.436,1.83l-1.347,1.684a2.206,2.206,0,0,1-1.8.826l-11.808-.4a3.788,3.788,0,0,1-2.373-.917,4.63,4.63,0,0,1-1.611-4.882l2.3-4.224,1.44-1.248,7.2,5.857,5.953-2.016Z" transform="translate(-296.814 -202.214)" fill="#1c5fbd"/>
    <path id="Path_194" data-name="Path 194" d="M657.2,439.684l6.721-17.477,1.536-1.342,2.689-2.92,5.377,1.384,2.288,2.878.977,2.691-1.129,12.29a6.115,6.115,0,0,1-5.242,4.987l-.251.032-13.145-.558Z" transform="translate(-296.814 -188.811)" fill="#277cf3"/>
    <path id="Path_195" data-name="Path 195" d="M683.737,410.357l-1.129,8.541h-2.135a2.613,2.613,0,0,0-2.065-2.555l-1.419-.3a2.613,2.613,0,0,0-2.832,1.286l-.02.037-1.729-.96,2.445-8.337h7.756Z" transform="translate(-303.767 -184.348)" fill="#78b2f8"/>
    <path id="Path_196" data-name="Path 196" d="M772.156,412.88l-4.865,10.39v5.86l-.9.968v3.544s19.331,3.113,31.749,1.449c0,0,.256-4.737-1.792-5.121l-1.025.794L784.775,425.3l-.841-3.392-1.211-2.3v-1.082a2.994,2.994,0,0,0-.855-2.1l-.75-.766Z" transform="translate(-346.227 -186.523)" fill="#277cf3"/>
    <path id="Path_197" data-name="Path 197" d="M789.523,399.818l-3.657,8.089a1.446,1.446,0,0,1,.383,1.805l-.383.73s-6.4.129-8.962-5.312l2.649-9.406,9.97,2.3Z" transform="translate(-350.974 -178.773)" fill="#78b2f8"/>
    <path id="Path_198" data-name="Path 198" d="M800.676,121.21l-5.3-2.993-11.138,1.457L781.8,122.35a39.216,39.216,0,0,0,18.877-1.14" transform="translate(-353.186 -53.406)"/>
    <path id="Path_199" data-name="Path 199" d="M680.6,126.6c-.978.039-2.865-.9-4.184-1.64a2.458,2.458,0,0,1-1.24-2.464L678.1,99.977l-7.425,10.69c-5.825-5.825-18.115-10.818-18.115-10.818,4.993-10.69,16.45-24.964,16.45-24.964a20.121,20.121,0,0,1,8-6.145l13.122-2.945a3.479,3.479,0,0,0,2.624-1.664h16.834l.847.372a9.587,9.587,0,0,0,3.5.783,83.13,83.13,0,0,1,11.639,1.621,9.309,9.309,0,0,1,6.8,5.615l9.908,24.255s-10.167-3.969-18.936,1.216l4.389,28.552a2.479,2.479,0,0,1-.941,2.332,28.691,28.691,0,0,1-4.152,2.465S690.389,118.283,680.6,126.6" transform="translate(-294.8 -28.972)" fill="#549cf7"/>
    <path id="Path_200" data-name="Path 200" d="M677.045,252.515c-.48-2.88.672-3.744.672-3.744-.576-2.208.48-3.084.48-3.084-.288-3.852,1.856-11.51,1.856-11.51a5.3,5.3,0,0,1-.736-2.72c-.032-1.7,1.92-2.56,1.92-2.56v-.832a2.848,2.848,0,0,1-.8-3.936c.96-1.184.832-3.777.832-3.777-.576-4.609,2.112-20.739,2.112-20.739l2.56-14.914-.768-1.217,1.536-7.681c9.794-8.322,42.055,4.736,42.055,4.736l3.2,7.937c9.708,16,18.68,28.662,22.66,38.022.686,1.614-1.145,4.2-.607,5.543,2.183,5.443,3.167,8.539,3.167,8.539-.384,7.681-5.249,28.8-5.249,28.8l-4.865,30.468c-16.9.256-22.4-9.6-22.4-9.6,4.737-9.474,11.81-45.847,11.81-45.847l1.152-.72-3.217-3.457-23.572-33.173-6.1,17.811s2.352,4.753-.672,5.857-2.5,3.217-2.5,3.217a2.319,2.319,0,0,1,.96,2.064,9.981,9.981,0,0,1-1.2,3.312c.192,3.168-2.785,9.794-2.785,9.794a1.621,1.621,0,0,1,.72,1.632,3.386,3.386,0,0,1-1.2,1.968l.48,1.2-2.976,7.058-2.4,40.518c-15.074,7.585-27.076-3.265-27.076-3.265-.192-14.4,5.377-30.82,5.377-30.82Z" transform="translate(-300.915 -78.166)" fill="#132e51"/>
    <path id="Path_201" data-name="Path 201" d="M705.493,188.933s-.512,11.079-4.481,16.968v-1.792s3-5.5,3.247-14.442Z" transform="translate(-316.689 -85.352)"/>
    <path id="Path_202" data-name="Path 202" d="M702.217,83.268c-.242-3.336-1.484-16.8-1.484-16.8l2.988-.576c1.312,1.152,4.352,22.852,4.352,22.852l24.676-1.952.96-22.308h3.247l1.065,28.48,3.737,1.491,4.6,32.251a3.042,3.042,0,0,1-.941,2.331l-4.152,2.465s-34.821-13.292-42.054-4.737l-4.185-1.64a2.412,2.412,0,0,1-1.24-2.464l2.928-21.962s5.665-6.483,5.5-11.572Z" transform="translate(-313.413 -29.13)" fill="#132e51"/>
    <path id="Path_203" data-name="Path 203" d="M711.929,108.166a1.536,1.536,0,1,0,1.536-1.536,1.536,1.536,0,0,0-1.536,1.536" transform="translate(-321.621 -48.171)" fill="#549cf7"/>
    <path id="Path_204" data-name="Path 204" d="M755.941,180.62l.089-.234c-.195-.075-19.6-7.434-29.681-7.434v.251c10.038,0,29.4,7.343,29.592,7.417" transform="translate(-328.136 -78.133)"/>
    <path id="Path_205" data-name="Path 205" d="M742.65,46.384a70.553,70.553,0,0,0,.133,10.133,8.883,8.883,0,0,1-1.516,6.227,7.744,7.744,0,0,1-6.521,3.483c-4.888,0-6.995-2.04-8.221-4.327a9.281,9.281,0,0,1-1.063-4.8l.482-10.711Z" transform="translate(-327.73 -20.954)" fill="#efaf87"/>
    <path id="Path_206" data-name="Path 206" d="M781.27,106.674l.248-.038-1.089-7.023c.183-.616,3.457-11.466,7.509-15.15l-.169-.185c-4.2,3.82-7.556,15.177-7.589,15.292l-.008.027,0,.028Z" transform="translate(-352.451 -38.073)"/>
    <path id="Path_207" data-name="Path 207" d="M780.427,103.662c1.636-4.278,7.467-10.267,7.526-10.327l-.179-.175c-.059.06-5.926,6.085-7.58,10.413Z" transform="translate(-352.46 -42.086)"/>
    <path id="Path_208" data-name="Path 208" d="M748.188,194.708l.089-.235a166.48,166.48,0,0,0-20.461-6.046c-14.191-3.1-22.842-2.321-25.714,2.321l.213.132c6.717-10.86,45.481,3.68,45.872,3.828" transform="translate(-317.182 -84.283)"/>
    <path id="Path_209" data-name="Path 209" d="M774.466,190.067l.237-.082-2.129-6.153-.237.082Z" transform="translate(-348.911 -83.048)"/>
    <path id="Path_210" data-name="Path 210" d="M761.646,185.974l.243-.062-1.528-6.017-.243.062Z" transform="translate(-343.391 -81.27)"/>
    <rect id="Rectangle_11" data-name="Rectangle 11" width="0.376" height="4.827" transform="translate(410.317 96.918) rotate(-8.377)"/>
    <rect id="Rectangle_12" data-name="Rectangle 12" width="0.376" height="3.118" transform="translate(404.007 95.539)"/>
    <path id="Path_211" data-name="Path 211" d="M712,178.9l.794-6.079-.2-.013c-.32-.021-7.831-.483-9.211,2.8l.347.146c1.159-2.76,7.432-2.634,8.639-2.584l-.742,5.679Z" transform="translate(-317.759 -78.054)"/>
    <rect id="Rectangle_13" data-name="Rectangle 13" width="3.239" height="0.376" transform="matrix(0.174, -0.985, 0.985, 0.174, 386.57, 99.245)"/>
    <path id="Path_212" data-name="Path 212" d="M782.041,119.13a23.519,23.519,0,0,1,12.424-2.842,15.8,15.8,0,0,1,4.993,1.047l.1-.228c-.076-.035-7.727-3.384-17.637,1.8Z" transform="translate(-353.242 -52.409)"/>
    <path id="Path_213" data-name="Path 213" d="M672.913,136.039l.28-.251c-.084-.093-8.483-9.374-18.414-11.283l-.071.37c9.8,1.885,18.121,11.072,18.2,11.164" transform="translate(-295.771 -56.246)"/>
    <rect id="Rectangle_14" data-name="Rectangle 14" width="10.595" height="0.251" transform="translate(409.807 128.849) rotate(-72.96)"/>
    <rect id="Rectangle_15" data-name="Rectangle 15" width="0.251" height="47.335" transform="translate(412.014 121.755) rotate(-33.865)"/>
    <path id="Path_214" data-name="Path 214" d="M794.475,390.891a16.072,16.072,0,0,0,2.345-.144l-.042-.247a24.934,24.934,0,0,1-21.624-8.992l-.19.163a25.544,25.544,0,0,0,19.511,9.22" transform="translate(-350.098 -172.35)"/>
    <path id="Path_215" data-name="Path 215" d="M682.39,401.609a23.451,23.451,0,0,0,2.824-.17,21.854,21.854,0,0,0,8.2-2.6l-.133-.213c-.126.079-12.751,7.751-27.084-3.081l-.151.2a26.8,26.8,0,0,0,16.345,5.868" transform="translate(-300.893 -178.69)"/>
    <rect id="Rectangle_16" data-name="Rectangle 16" width="0.251" height="16.65" transform="translate(375.998 174.358) rotate(-4.012)"/>
    <rect id="Rectangle_17" data-name="Rectangle 17" width="8.142" height="0.251" transform="translate(390.202 189.612) rotate(-57.685)"/>
    <path id="Path_216" data-name="Path 216" d="M802.133,305.111l.083-.236a20.376,20.376,0,0,1-5.626-3.146l-.161.192a20.644,20.644,0,0,0,5.7,3.191" transform="translate(-359.795 -136.309)"/>
    <path id="Path_217" data-name="Path 217" d="M742.076,44.561s-.145,5.078-1.664,7.541c-2.528,4.1-6.668,7.46-9.393,7.54,0,0-7.634,0-7.971-14.082Z" transform="translate(-326.644 -20.131)" fill="#dc9876"/>
    <path id="Path_218" data-name="Path 218" d="M681.911,433.341a.956.956,0,1,1,.956.956.957.957,0,0,1-.956-.956m.376,0a.58.58,0,1,0,.58-.58.581.581,0,0,0-.58.58" transform="translate(-308.06 -195.334)"/>
    <path id="Path_219" data-name="Path 219" d="M674.55,432.446a.956.956,0,1,1,.956.956.957.957,0,0,1-.956-.956m.376,0a.58.58,0,1,0,.58-.58.581.581,0,0,0-.58.58" transform="translate(-304.735 -194.93)"/>
    <path id="Path_220" data-name="Path 220" d="M681.453,440.657a.956.956,0,1,1,.956.956.957.957,0,0,1-.956-.956m.376,0a.58.58,0,1,0,.58-.58.581.581,0,0,0-.58.58" transform="translate(-307.853 -198.639)"/>
    <path id="Path_221" data-name="Path 221" d="M673.149,439.256a.956.956,0,1,1,.956.956.957.957,0,0,1-.956-.956m.376,0a.58.58,0,1,0,.58-.58.581.581,0,0,0-.58.58" transform="translate(-304.102 -198.006)"/>
    <path id="Path_222" data-name="Path 222" d="M680.539,447.517a.956.956,0,1,1,.956.956.957.957,0,0,1-.956-.956m.376,0a.58.58,0,1,0,.58-.58.581.581,0,0,0-.58.58" transform="translate(-307.44 -201.738)"/>
    <path id="Path_223" data-name="Path 223" d="M673.149,446.116a.956.956,0,1,1,.956.956.957.957,0,0,1-.956-.956m.376,0a.58.58,0,1,0,.58-.58.581.581,0,0,0-.58.58" transform="translate(-304.102 -201.106)"/>
    <path id="Path_224" data-name="Path 224" d="M677.455,447.867a10.547,10.547,0,0,0,1.385-.092l-.054-.372c-.874.127-3.273.251-3.865-.683l-.318.2c.493.779,1.814.945,2.852.945" transform="translate(-304.759 -201.811)"/>
    <path id="Path_225" data-name="Path 225" d="M678.789,440.88c.336,0,.555-.012.587-.014l-.021-.376c-.029,0-2.958.157-4.445-.741l-.195.322a8.848,8.848,0,0,0,4.073.808" transform="translate(-304.81 -198.661)"/>
    <path id="Path_226" data-name="Path 226" d="M680.2,433.6l.145-.347c-.108-.045-2.665-1.1-4.178-.492l.14.349c1.37-.552,3.867.479,3.893.49" transform="translate(-305.465 -195.419)"/>
    <path id="Path_227" data-name="Path 227" d="M791.2,431.187a.784.784,0,1,1,.783.783.784.784,0,0,1-.783-.783m.377,0a.407.407,0,1,0,.407-.407.407.407,0,0,0-.407.407" transform="translate(-357.433 -194.439)"/>
    <path id="Path_228" data-name="Path 228" d="M795.774,437.131a.783.783,0,1,1,.783.783.784.784,0,0,1-.783-.783m.376,0a.407.407,0,1,0,.407-.407.408.408,0,0,0-.407.407" transform="translate(-359.499 -197.125)"/>
    <path id="Path_229" data-name="Path 229" d="M801.719,440.79a.783.783,0,1,1,.783.783.784.784,0,0,1-.783-.783m.376,0a.407.407,0,1,0,.407-.407.408.408,0,0,0-.407.407" transform="translate(-362.185 -198.778)"/>
    <rect id="Rectangle_18" data-name="Rectangle 18" width="4.041" height="0.376" transform="translate(434.524 236.562) rotate(-8.473)"/>
    <rect id="Rectangle_19" data-name="Rectangle 19" width="3.173" height="0.376" transform="matrix(0.84, -0.543, 0.543, 0.84, 436.956, 239.849)"/>
    <rect id="Rectangle_20" data-name="Rectangle 20" width="2.923" height="0.376" transform="matrix(0.727, -0.686, 0.686, 0.727, 440.189, 241.876)"/>
    <rect id="Rectangle_21" data-name="Rectangle 21" width="3.584" height="0.376" transform="translate(445.517 244.054)"/>
    <path id="Path_230" data-name="Path 230" d="M789.646,448.866c5.9,0,10.518-.379,10.61-.387l-.032-.374c-.185.015-18.573,1.524-28.916-1.529l-.106.361c5.229,1.543,12.49,1.93,18.444,1.93" transform="translate(-348.398 -201.745)"/>
    <path id="Path_231" data-name="Path 231" d="M655.311,131.478l-2.047-.938-2.63,4.942s-.988,6.673,4.513,9.937l5.889-.528,4.944-7.444-5.738-3.48Z" transform="translate(-293.899 -58.973)" fill="#efaf87"/>
    <path id="Path_232" data-name="Path 232" d="M657.814,132.257l-1.388-.664-1.066.664-.587,8.885,3.041,4.684h2.36l-1.669-11Z" transform="translate(-295.8 -59.448)" fill="#dc9876"/>
    <path id="Path_233" data-name="Path 233" d="M794.8,125.705l-.953,4.15a1.966,1.966,0,0,1-.571,1l-2.8,2.625a1.97,1.97,0,0,1-1.545.523l-16.88-1.709-1.065-5.443,12.613-7.458a6.181,6.181,0,0,1,6.639.222l3.471,2.379,1,2.558a1.969,1.969,0,0,1,.086,1.157" transform="translate(-348.303 -53.546)" fill="#efaf87"/>
    <path id="Path_234" data-name="Path 234" d="M778.612,126.761l-1.6.917-.576,7.772,2.871.291,1.418-6.96a1.6,1.6,0,0,0,.03-.386l-.072-1.6a1.578,1.578,0,0,1,.246-.919l.5-.786Z" transform="translate(-350.763 -56.513)" fill="#dc9876"/>
    <path id="Path_235" data-name="Path 235" d="M756.384,134.479v1.254a1.289,1.289,0,0,0,.806,1.134l.823.385H760.4l-.394-3.633Z" transform="translate(-341.704 -60.364)"/>
    <path id="Path_236" data-name="Path 236" d="M771.042,137.054a4.392,4.392,0,0,0-6.491-4.649l-11.346-8.271a4.392,4.392,0,0,0-6.412-4.757l2.92,2.129a.7.7,0,0,1,.152.971l-1.375,1.887a.7.7,0,0,1-.971.152l-2.921-2.128a4.392,4.392,0,0,0,6.491,4.649l11.346,8.271a4.392,4.392,0,0,0,6.412,4.757l-2.92-2.129a.7.7,0,0,1-.152-.971l1.375-1.886a.7.7,0,0,1,.971-.152Z" transform="translate(-336.344 -53.684)" fill="#549cf7" fill-rule="evenodd"/>
    <path id="Path_237" data-name="Path 237" d="M760.171,130.066v4.862a1,1,0,0,0,1,1h1.492l.48-.87,2.959,1.152,3.852-.155,1.227-7.247a1.545,1.545,0,0,0-1-1.732l-5.337-1.894a1.545,1.545,0,0,0-1.244.093l-1.8.959Z" transform="translate(-343.415 -56.513)" fill="#efaf87"/>
    <path id="Path_238" data-name="Path 238" d="M663.732,135.964s-2.73-1.9-5.1-1.161c0,0-1.152,5.025-.768,8.033.3,2.317,3.615,5.468,5.125,6.8a1.075,1.075,0,0,0,1.442-.02l2.633-2.439a1.456,1.456,0,0,0,.465-1.067v-5.568a1.455,1.455,0,0,0-.4-1Z" transform="translate(-297.162 -60.822)" fill="#efaf87"/>
    <path id="Path_239" data-name="Path 239" d="M766.279,108.166a1.536,1.536,0,1,0,1.536-1.536,1.536,1.536,0,0,0-1.536,1.536" transform="translate(-346.174 -48.171)" fill="#549cf7"/>
    <path id="Path_240" data-name="Path 240" d="M766.138,113.413a4.217,4.217,0,0,0,3.212-2.01l-.2-.152c-1,1.308-2.039,1.946-3.107,1.91a4.253,4.253,0,0,1-2.894-1.863l.952-6.123-.248-.038-.968,6.22.026.04a4.5,4.5,0,0,0,3.12,2.016l.105,0" transform="translate(-344.641 -47.496)"/>
    <path id="Path_241" data-name="Path 241" d="M721.922,31.312s-.495-.837-1.167-.516.583,6.526.583,6.526l1.434-5.168Z" transform="translate(-325.519 -13.879)" fill="#dc9876"/>
    <path id="Path_242" data-name="Path 242" d="M741.1,17.068,739.765,13.7s-.752-7.746-8.508-7.746-8.723,8.925-8.723,8.925l-1.5,17.791.9-.425-1.016,1.794,2.416,2.328a.444.444,0,0,0,.75-.282l.033-.4.953.582c7.35,1,11.111-1.633,11.111-1.633l.586.615,1.032-1.834.384,1.388c5.2-7.645,2.916-17.732,2.916-17.732" transform="translate(-325.682 -2.688)" fill="#efaf87"/>
    <path id="Path_243" data-name="Path 243" d="M758.908,30.019s2.176-.026,1.472,3.641c0,0-.564,3.34-1.786,3.343l-.838-3.343Z" transform="translate(-342.324 -13.561)" fill="#dc9876"/>
    <path id="Path_244" data-name="Path 244" d="M742.6,5.9c-1.291-4.3-6.106-2.038-8.446-4.755s-5.963.151-8.3.83-1.359,1.132-3.573,5.585a9.026,9.026,0,0,0,0,8.206c.108-1.28.79-5.736.79-5.736,1.746.356,2.1-1.866,2.1-1.866,3.887-3.321,7.39-3.008,9.921-1.865a9.859,9.859,0,0,1,5,5.427l.792,2,.183.768a.2.2,0,0,0-.322.124c-.27,1.55-.951,4.666-2.17,5.6a.186.186,0,0,1-.211.008A12.211,12.211,0,0,0,723.843,21.9a.2.2,0,0,1-.3-.035,14.346,14.346,0,0,1-1.187-2.446.2.2,0,0,0-.395.05l-.887,10.512.32-.151a.2.2,0,0,1,.264.285l-.621,1.1a.2.2,0,0,0,.036.247l2.356,2.271a.408.408,0,0,0,.689-.259l.04-.473a2.858,2.858,0,0,0,.953.581c.442.14.9.014,1.641.139a13.8,13.8,0,0,0,9.329-1.689.2.2,0,0,1,.25.034l.476.5.79-1.4a.2.2,0,0,1,.373.046l.252.912s4.253-3.384,3.748-10.647a17.906,17.906,0,0,1,.168-3.983L742.6,14.7l-.1-4.093s1.394-.4.1-4.707" transform="translate(-325.725 0)" fill="#2a1408"/>
    <path id="Path_245" data-name="Path 245" d="M736.374,41.884a11.6,11.6,0,0,0-7.734.5,1.907,1.907,0,0,0-1.049,1.557l-.333,3.951a.257.257,0,0,0,.234.277l2.913.092a.257.257,0,0,0,.278-.246l.036-.981a.52.52,0,0,1,.414-.49l1.494-.313a.521.521,0,0,1,.626.554l-.135,1.6a.257.257,0,0,0,.234.277l3.883-.44a.255.255,0,0,0,.277-.236c.058-.788.173-2.452.311-4.068a1.925,1.925,0,0,0-1.448-2.033" transform="translate(-328.545 -18.724)" fill="#efaf87"/>
    <path id="Path_246" data-name="Path 246" d="M730.006,27.939l.418.035a.308.308,0,0,0,.333-.281l.127-1.5a.308.308,0,0,0-.281-.333l-.418-.035a.308.308,0,0,0-.333.281l-.127,1.5a.308.308,0,0,0,.281.333" transform="translate(-329.66 -11.666)" fill="#010611"/>
    <path id="Path_247" data-name="Path 247" d="M743.328,27.258l-.419-.014a.308.308,0,0,1-.3-.319l.049-1.5a.308.308,0,0,1,.318-.3l.419.014a.308.308,0,0,1,.3.318l-.05,1.5a.308.308,0,0,1-.318.3" transform="translate(-335.482 -11.35)" fill="#010611"/>
    <path id="Path_248" data-name="Path 248" d="M727.3,24.257a.062.062,0,0,1-.106-.064,3.476,3.476,0,0,1,1.12-1.351c.968-.734,2.108.111,2.46.411a.345.345,0,0,1,.12.234l0,.03a.345.345,0,0,1-.216.348l-.1.038a.344.344,0,0,1-.364-.069,1.634,1.634,0,0,0-1.839-.417,3.213,3.213,0,0,0-1.082.84" transform="translate(-328.515 -10.187)" fill="#010611"/>
    <path id="Path_249" data-name="Path 249" d="M744.08,23.222a.062.062,0,0,0,.106-.063,3.474,3.474,0,0,0-1.118-1.353c-.967-.736-2.109.107-2.461.407a.346.346,0,0,0-.12.234l0,.03a.343.343,0,0,0,.215.348l.1.038a.344.344,0,0,0,.364-.069A1.634,1.634,0,0,1,743,22.38a3.214,3.214,0,0,1,1.081.842" transform="translate(-334.521 -9.719)" fill="#010611"/>
    <path id="Path_250" data-name="Path 250" d="M734.651,27.483l-2.406,3.274-.071.839,3.237.618.128-1.524-.8-.224Z" transform="translate(-330.767 -12.416)" fill="#efaf87"/>
    <rect id="Rectangle_22" data-name="Rectangle 22" width="0.217" height="0.826" transform="matrix(0.27, -0.963, 0.963, 0.27, 403.947, 18.156)" fill="#2a1408"/>
    <path id="Path_251" data-name="Path 251" d="M735.294,32.268l.041-.214-3.14-.6.06-.712,2.388-3.249-.175-.128-2.425,3.3-.082.968Z" transform="translate(-330.671 -12.363)" fill="#2a1408"/>
    <path id="Path_252" data-name="Path 252" d="M772.553,64.481l.758,1.469-.707-.1Z" transform="translate(-349.008 -29.13)" fill="#603510"/>
    <path id="Path_253" data-name="Path 253" d="M706.076,68.1l-.489,1.4.8-.179Z" transform="translate(-318.756 -30.765)" fill="#603510"/>
    <rect id="Rectangle_23" data-name="Rectangle 23" width="0.251" height="3.318" transform="translate(419.603 75.229)"/>
    <rect id="Rectangle_24" data-name="Rectangle 24" width="0.251" height="2.811" transform="translate(422.563 76.888)"/>
    <rect id="Rectangle_25" data-name="Rectangle 25" width="0.25" height="1.386" transform="translate(423.995 69.715) rotate(-70.46)"/>
    <path id="Path_254" data-name="Path 254" d="M776.743,137.719h.8l1.245-7.351a1.66,1.66,0,0,0-1.085-1.872l-.084.236a1.392,1.392,0,0,1,.922,1.59l-1.21,7.146h-.593Z" transform="translate(-350.901 -58.05)"/>
    <path id="Path_255" data-name="Path 255" d="M662.318,138.863l4.147-.179a.452.452,0,0,0,.317-.753l-.914-1.024-.187.167.914,1.023a.2.2,0,0,1-.141.336l-4.147.179Z" transform="translate(-299.204 -61.849)"/>
    <path id="Path_256" data-name="Path 256" d="M664.051,150.443l4.28-.185a.707.707,0,0,0,.678-.706l0-2.271a.7.7,0,0,0-.216-.51.71.71,0,0,0-.516-.2l-7.489.252.008.251,7.489-.252a.457.457,0,0,1,.473.458l0,2.271a.457.457,0,0,1-.438.456l-4.28.185Z" transform="translate(-298.519 -66.215)"/>
    <path id="Path_257" data-name="Path 257" d="M668.278,443.33h5.655v-.251h-5.6l-1.867-.852a3.137,3.137,0,0,1-1.565-4.092l5.729-13.105-.23-.1-5.729,13.105a3.388,3.388,0,0,0,1.691,4.42Z" transform="translate(-300.145 -191.966)"/>
    <path id="Path_258" data-name="Path 258" d="M731.236,44.791l5.382-.261a3.869,3.869,0,0,1-4.43,1.65Z" transform="translate(-330.343 -20.117)" fill="#010611"/>
    <path id="Path_259" data-name="Path 259" d="M731.236,44.791l.343.5a10.617,10.617,0,0,0,5.038-.763Z" transform="translate(-330.343 -20.117)" fill="#fff"/>
    <path id="Path_260" data-name="Path 260" d="M734.109,48.811a6.548,6.548,0,0,0,1.669-.252l-.062-.208c-.019.005-1.815.535-2.684.011l-.112.186a2.34,2.34,0,0,0,1.188.263" transform="translate(-331.104 -21.843)" fill="#2a1408"/>
    <path id="Path_261" data-name="Path 261" d="M901.936,648.086a9.455,9.455,0,1,1,18.909,0Z" transform="translate(-407.459 -288.508)" fill="#f9e093"/>
    <path id="Path_262" data-name="Path 262" d="M551.737,651.366l7.71-3.99a13.268,13.268,0,0,1,14.076,1.182l3.732,2.808Z" transform="translate(-249.253 -291.788)" fill="#f9e093"/>
    <path id="Path_263" data-name="Path 263" d="M572.911,164.3,411.207,43.028A20.188,20.188,0,0,0,399.1,39H368.574V56.842L225.291,164.294a20.268,20.268,0,0,0-8.087,16.179v140.2H206.938v56.843h30.527a20.219,20.219,0,0,0,12.05-4.017L399.095,261.325,534.18,362.647v14.9H565.1v-.485A20.181,20.181,0,0,0,581,357.347V180.473a20.269,20.269,0,0,0-8.086-16.173" transform="translate(-93.486 -17.62)" fill="#104184"/>
    <path id="Path_264" data-name="Path 264" d="M339.773,43.029,178.07,164.3a20.269,20.269,0,0,0-8.087,16.179V357.347a20.216,20.216,0,0,0,32.31,16.155L351.874,261.326,501.43,373.5a20.216,20.216,0,0,0,32.346-16.156V180.474a20.268,20.268,0,0,0-8.087-16.173L363.985,43.029a20.216,20.216,0,0,0-24.212,0" transform="translate(-76.792 -17.62)" fill="#007bfe"/>
    <path id="Path_265" data-name="Path 265" d="M336.924,65.5V214.664H194.671V172.179" transform="translate(-87.945 -29.59)" fill="none" stroke="#132e51" stroke-miterlimit="10" stroke-width="1.505"/>
    <path id="Path_266" data-name="Path 266" d="M439.454,322.061a2.8,2.8,0,1,1-2.8-2.8A2.8,2.8,0,0,1,439.454,322.061Z" transform="translate(-196.002 -144.232)" fill="none" stroke="#132e51" stroke-miterlimit="10" stroke-width="1.024"/>
    <line id="Line_3" data-name="Line 3" y1="4.721" x2="2.959" transform="translate(239.117 175.359)" fill="none" stroke="#132e51" stroke-miterlimit="10" stroke-width="1.024"/>
    <path id="Path_267" data-name="Path 267" d="M212.528,322.061a2.8,2.8,0,1,1-2.8-2.8A2.8,2.8,0,0,1,212.528,322.061Z" transform="translate(-93.486 -144.232)" fill="none" stroke="#132e51" stroke-miterlimit="10" stroke-width="1.024"/>
    <line id="Line_4" data-name="Line 4" y1="4.721" x2="2.959" transform="translate(114.707 175.359)" fill="none" stroke="#132e51" stroke-miterlimit="10" stroke-width="1.024"/>
    <path id="Path_268" data-name="Path 268" d="M593.674,335.275a2.8,2.8,0,1,1-2.8-2.8A2.8,2.8,0,0,1,593.674,335.275Z" transform="translate(-265.673 -150.201)" fill="none" stroke="#132e51" stroke-miterlimit="10" stroke-width="1.024"/>
    <line id="Line_5" data-name="Line 5" y1="4.721" x2="2.958" transform="translate(323.666 182.604)" fill="none" stroke="#132e51" stroke-miterlimit="10" stroke-width="1.024"/>
    <path id="Path_269" data-name="Path 269" d="M645.258,335.275a2.8,2.8,0,1,1-2.8-2.8A2.8,2.8,0,0,1,645.258,335.275Z" transform="translate(-288.977 -150.201)" fill="none" stroke="#132e51" stroke-miterlimit="10" stroke-width="1.024"/>
    <line id="Line_6" data-name="Line 6" y1="4.721" x2="2.959" transform="translate(351.947 182.604)" fill="none" stroke="#132e51" stroke-miterlimit="10" stroke-width="1.024"/>
    <path id="Path_270" data-name="Path 270" d="M622.27,415.686V324.365H580.226v59.491" transform="translate(-262.123 -146.535)" fill="none" stroke="#132e51" stroke-miterlimit="10" stroke-width="1.505"/>
    <path id="Path_271" data-name="Path 271" d="M579.315,431.071V470.34L623.2,503.23l-.888-39.338Z" transform="translate(-261.711 -194.741)" fill="#104184"/>
    <path id="Path_272" data-name="Path 272" d="M606.912,491.151l-1.238-.928v-9.408a13.843,13.843,0,0,0-4.08-9.851,15.066,15.066,0,0,1-4.443-10.726V444.719l1.238,1v14.517a13.838,13.838,0,0,0,4.081,9.851,15.07,15.07,0,0,1,4.442,10.726Z" transform="translate(-269.769 -200.906)" fill="#f5b900"/>
    <path id="Path_273" data-name="Path 273" d="M628.045,511.214l-1.238-.9v-6.806a3.839,3.839,0,0,1,3.835-3.835,2.6,2.6,0,0,0,2.6-2.6l.193-20.766,1.054.8-.008,19.963a3.839,3.839,0,0,1-3.835,3.835,2.6,2.6,0,0,0-2.6,2.6Z" transform="translate(-283.166 -215.177)" fill="#e37a00"/>
    <path id="Path_274" data-name="Path 274" d="M647.2,507.853h-1.238V481.689l1.238.935Z" transform="translate(-291.822 -217.608)" fill="#e37a00"/>
    <path id="Path_275" data-name="Path 275" d="M647.2,547.5l-1.238-.929v-7.428H647.2Z" transform="translate(-291.822 -243.563)" fill="#e37a00"/>
    <path id="Path_276" data-name="Path 276" d="M748.092,418.69,683.9,383.876V327.454l64.191,34.814Z" transform="translate(-308.959 -147.931)" fill="#005cbf"/>
    <path id="Path_277" data-name="Path 277" d="M694.21,388.956a25.334,25.334,0,0,0,5.663,0,1.867,1.867,0,0,1,1.755.893l3.445,6.418a1.567,1.567,0,0,0,1.723.746c.815-.246,1.63-.513,2.438-.817.623-.228,1.616-.641,2.218-.916q1.177-.532,2.3-1.151a1.56,1.56,0,0,0,.695-1.742h0l-2.1-6.977a1.879,1.879,0,0,1,.609-1.868,24.956,24.956,0,0,0,4-4.008,1.885,1.885,0,0,1,1.877-.6l6.969,2.1a1.561,1.561,0,0,0,1.745-.7,34.577,34.577,0,0,0,1.63-3.4,36.479,36.479,0,0,0,1.246-3.553,1.563,1.563,0,0,0-.742-1.726l-6.417-3.44a1.888,1.888,0,0,1-.9-1.752,25.193,25.193,0,0,0,0-5.673,1.886,1.886,0,0,1,.9-1.753l6.413-3.44a1.572,1.572,0,0,0,.769-1.584l-10.891-5.907-.728.219a1.869,1.869,0,0,1-1.873-.6,24.856,24.856,0,0,0-1.766-1.983l-14.2-7.7a1.838,1.838,0,0,1-1.107.27,24.9,24.9,0,0,0-5.664,0,1.884,1.884,0,0,1-1.757-.891l-3.023-5.641-2.565-1.391c-.673.21-1.344.431-2.016.683-.267.1-.605.234-.949.375V385.2l8.56,4.643a1.888,1.888,0,0,1,1.75-.888m-8.9-30.187a12.7,12.7,0,1,1,6.874,16.6,12.705,12.705,0,0,1-6.874-16.6" transform="translate(-308.959 -149.256)" fill="#132e51"/>
    <path id="Path_278" data-name="Path 278" d="M683.9,327.454l7.919,4.305v56.423l-7.919-4.306Z" transform="translate(-308.959 -147.931)" fill="#00458f"/>
    <path id="Path_279" data-name="Path 279" d="M744.607,360.992l.728-.219-4.367-2.368a25.043,25.043,0,0,1,1.766,1.983,1.869,1.869,0,0,0,1.873.6" transform="translate(-334.74 -161.913)" fill="#005cbf"/>
    <path id="Path_280" data-name="Path 280" d="M781.59,386.174a6.806,6.806,0,0,1,.523-2.615l-6.042-3.276a13.382,13.382,0,0,0-.812,2.086,1.011,1.011,0,0,1-.809.684l-3.9.393a.839.839,0,0,0-.725.706,18.527,18.527,0,0,0-.112,2.027c0,.684.041,1.359.108,2.022a.846.846,0,0,0,.729.706l3.9.388a1.009,1.009,0,0,1,.8.689,13.531,13.531,0,0,0,1.168,2.821,1.022,1.022,0,0,1-.083,1.056l-2.481,3.031a.838.838,0,0,0-.016,1.013c.287.354.592.706.9,1.043.244.264.653.672.911.912.343.317.693.621,1.047.906a.84.84,0,0,0,1.01-.013l3.031-2.481a1.022,1.022,0,0,1,1.057-.088,13.527,13.527,0,0,0,2.817,1.17,1,1,0,0,1,.688.8l.392,3.9a.837.837,0,0,0,.7.722c.15.016.3.024.453.037V392.824a6.836,6.836,0,0,1-5.269-6.65" transform="translate(-347.726 -171.797)" fill="#f5b900"/>
    <path id="Path_281" data-name="Path 281" d="M770.337,428.976l-.53-5.3a1.144,1.144,0,0,0-.957-.982,25.345,25.345,0,0,0-2.747-.151,25.637,25.637,0,0,0-2.749.151,1.139,1.139,0,0,0-.955.982l-.528,5.3a1.372,1.372,0,0,1-.934,1.092,18.237,18.237,0,0,0-3.823,1.581,1.374,1.374,0,0,1-1.434-.111l-4.115-3.37a1.155,1.155,0,0,0-1.377-.022c-.481.394-.952.8-1.418,1.232-.354.328-.907.883-1.236,1.24-.43.456-.842.93-1.23,1.415a1.142,1.142,0,0,0,.018,1.372l3.371,4.118a1.381,1.381,0,0,1,.112,1.434,18.31,18.31,0,0,0-1.58,3.823,1.365,1.365,0,0,1-1.1.929l-4.835.488,15.933,8.641a9.269,9.269,0,1,1,16.243-8.87V431.327a18.463,18.463,0,0,0-3.2-1.258,1.377,1.377,0,0,1-.937-1.093" transform="translate(-335.339 -190.89)" fill="#132e51"/>
    <path id="Path_282" data-name="Path 282" d="M134.725,419.163l-2.34,23.937,3.3,6.064v2.264l-5.657,7.543-2.357-5.5-.786-26.084,1.728-5.5,3.615-2.724Z" transform="translate(-57.322 -189.361)" fill="#9f5a34"/>
    <path id="Path_283" data-name="Path 283" d="M93.423,284.211s2.782-1.02,1.623-4.868-3.895-2.921-3.895-2.921.834-2.828.139-3.246a.933.933,0,0,0-1.159.047,11.01,11.01,0,0,0-.819-2.637,4.262,4.262,0,0,0-4.021-2.418h-.028s-1.9-4.033-5.935-2.6c0,0-2.225-1.3-2.967.278,0,0-6.676-2.735-9.04,2.689,0,0-2.179.278-1.855,2.318,0,0-3.663.417-2.689,3.2,0,0-4.358,2.225-1.622,4.868,0,0-1.762,1.344-.556,2.457a4.839,4.839,0,0,0-1.159,3.662,7.078,7.078,0,0,0,2.179,3.477s-.7,1.53-.093,2.039a2.048,2.048,0,0,0,1.669.186s-.88,4.868,4.359,4.683c0,0,.325,1.53,2.6,1.066a4.876,4.876,0,0,0,5.8.278l15.67-11.822Z" transform="translate(-26.826 -119.749)" fill="#2a1408"/>
    <path id="Path_284" data-name="Path 284" d="M99.324,294.284s-.139,1.669-3.095,1.6-4.485-1.947-7.232-1.947-3.964,4.068-4.173,5.981c0,0-.278,2.19-1.912,2.016l-.556-.1v8.449a10.346,10.346,0,0,1-5.841,8.9l-1.149.509-1.792.528c3.5,7.188,15.736,7.03,15.736,7.03,3.894-.834,5.477-7.03,5.477-7.03L91.4,317.65l.7-3.616c2.643.974,4.868-2.921,4.868-2.921,4.868-6.259,2.365-16.829,2.365-16.829" transform="translate(-33.238 -132.789)" fill="#9f5a34"/>
    <path id="Path_285" data-name="Path 285" d="M89.518,332.558a.089.089,0,0,0,.089-.089v-8.8a.089.089,0,0,0-.179,0v8.8a.089.089,0,0,0,.089.089" transform="translate(-40.4 -146.181)"/>
    <path id="Path_286" data-name="Path 286" d="M100.274,323.833a16.788,16.788,0,0,1-8.589-8.206s1.287,9.84,5.981,11.231c0,0,2.225.626,2.608-3.025" transform="translate(-41.42 -142.588)" fill="#7c4527"/>
    <path id="Path_287" data-name="Path 287" d="M87.026,307.2s-.788-1.333-1.576-1.379-1.623,1.3-1.53,2.6a4.6,4.6,0,0,0,1.29,2.3,1.294,1.294,0,0,0,1.384.351l.432-.15Z" transform="translate(-37.909 -138.155)" fill="#9f5a34"/>
    <path id="Path_288" data-name="Path 288" d="M87.14,313.454a.371.371,0,1,0,.371-.371.371.371,0,0,0-.371.371" transform="translate(-39.366 -141.438)" fill="#f8d677"/>
    <path id="Path_289" data-name="Path 289" d="M98.591,283.812s-12.24-2.689-11.684,11.73l-.7-.093s-3.385-15.578,12.379-11.637" transform="translate(-38.809 -127.926)" fill="#f8d677"/>
    <path id="Path_290" data-name="Path 290" d="M113.171,314.114a1.5,1.5,0,0,0,1.388-.945.132.132,0,0,0-.019-.122,5.657,5.657,0,0,1-.982-2.882.085.085,0,1,0-.17.014,5.842,5.842,0,0,0,1,2.952,1.3,1.3,0,0,1-1.22.812,1.755,1.755,0,0,1-.293-.025.085.085,0,0,0-.028.168,1.969,1.969,0,0,0,.321.027" transform="translate(-50.949 -140.085)"/>
    <path id="Path_291" data-name="Path 291" d="M111.04,315.73a.085.085,0,0,0,.073-.128l0,0s-.012-.018-.024-.042a.6.6,0,0,1,.064-.669.085.085,0,1,0-.133-.107.763.763,0,0,0-.082.854c.017.033.03.053.033.057a.086.086,0,0,0,.072.038" transform="translate(-50.074 -142.191)"/>
    <path id="Path_292" data-name="Path 292" d="M111.555,320.974l-.411-.388-.5.316-.439-.183-1.916.6,2.354.492,1.262-.611Z" transform="translate(-48.922 -144.828)" fill="#5e331b"/>
    <path id="Path_293" data-name="Path 293" d="M109.945,322.294a.09.09,0,0,0,.039-.009l1.144-.516a.1.1,0,0,0,.048-.127.1.1,0,0,0-.127-.048l-1.115.5-3.079-.644a.1.1,0,0,0-.039.188l3.11.65.02,0" transform="translate(-48.221 -145.219)"/>
    <path id="Path_294" data-name="Path 294" d="M114.622,321.989a.1.1,0,0,0,.095-.084.925.925,0,0,0-.27-.76.1.1,0,1,0-.124.145.746.746,0,0,1,.2.592.1.1,0,0,0,.084.106h.012" transform="translate(-51.631 -145.07)"/>
    <path id="Path_295" data-name="Path 295" d="M106.5,321.715h.014a.1.1,0,0,0,.081-.109.824.824,0,0,1,.328-.713.1.1,0,0,0-.113-.155,1,1,0,0,0-.4.9.1.1,0,0,0,.095.082" transform="translate(-48.066 -144.888)"/>
    <path id="Path_296" data-name="Path 296" d="M111.326,324.11a1.342,1.342,0,0,0,.572-.116.923.923,0,0,0,.5-.533.1.1,0,0,0-.184-.053.73.73,0,0,1-.4.414,2.214,2.214,0,0,1-1.727-.231.1.1,0,0,0-.079.174,3.312,3.312,0,0,0,1.32.344" transform="translate(-49.671 -146.072)"/>
    <path id="Path_297" data-name="Path 297" d="M107.477,303.013a1.783,1.783,0,0,0-.366-.184c-.873-.338-2.578-.5-3.1.538l-.459.809c-.031.054.048.095.1.054l.84-.644a.933.933,0,0,1,.49-.184,3.429,3.429,0,0,1,1.809.047,3.776,3.776,0,0,0,.419.233c.2.075.562.03.565-.25a.375.375,0,0,0-.1-.231.944.944,0,0,0-.207-.187" transform="translate(-46.78 -136.691)" fill="#010611"/>
    <path id="Path_298" data-name="Path 298" d="M107.184,308.25h.252a.367.367,0,0,0,.367-.367v-1.3a.367.367,0,0,0-.367-.367h-.252a.367.367,0,0,0-.367.367v1.3a.367.367,0,0,0,.367.367" transform="translate(-48.256 -138.335)" fill="#010611"/>
    <path id="Path_299" data-name="Path 299" d="M118.174,308.25h-.252a.367.367,0,0,1-.367-.367v-1.3a.367.367,0,0,1,.367-.367h.252a.367.367,0,0,1,.367.367v1.3a.367.367,0,0,1-.367.367" transform="translate(-53.106 -138.335)" fill="#010611"/>
    <path id="Path_300" data-name="Path 300" d="M115,303.2a.958.958,0,0,1,.207-.187,1.8,1.8,0,0,1,.366-.184c.839-.325,2.442-.48,3.026.425v.648l-.413-.317a.928.928,0,0,0-.49-.184,3.426,3.426,0,0,0-1.809.047,3.768,3.768,0,0,1-.419.232c-.2.075-.562.03-.565-.249a.376.376,0,0,1,.1-.231" transform="translate(-51.909 -136.691)" fill="#010611"/>
    <path id="Path_301" data-name="Path 301" d="M15.923,402s-2.382,4.613,25.6,1.005l1.208-4.061H31.48l-13.356,1.4Z" transform="translate(-7.171 -180.226)"/>
    <path id="Path_302" data-name="Path 302" d="M78.5,344.7H76.619l-7.857-2.828s-1.257,5.814-9.271,5.814a14.9,14.9,0,0,1-11.942-5.814L34.979,344.78l-2.357,4.164-6.757,8.212-9.9,19.06,21.527.069s4.4-.247,4.4,1.763l1.414,12.515,18.7,7.593,16.5.757V386.97h2.514l1.729-1.338,9.585-7.106s-.786-4.912-1.729-5.07Z" transform="translate(-7.213 -154.445)" fill="#f5b900"/>
    <path id="Path_303" data-name="Path 303" d="M18.119,614.025l2,6.761L17.5,623.7s-1.219,6.093-4.175,8.927a3.493,3.493,0,0,1-3.049.881L.735,631.763l-.628-4.116,8.883-16.37,7.668.95Z" transform="translate(-0.048 -276.151)" fill="#f5b900"/>
    <path id="Path_304" data-name="Path 304" d="M102,639.281l-2.724-3.247v4.5s3.562,4.547,8.695,4.211,6.181-3.758,6.181-3.758l.41-2.159" transform="translate(-44.848 -287.335)" fill="#5dc6ad"/>
    <path id="Path_305" data-name="Path 305" d="M107.857,610.38l6.606,15.233s1.048,2.514-3.771,2.828A18.373,18.373,0,0,1,102,626.765l-2.724-3.248,2.03-13.88,4.36-1.31Z" transform="translate(-44.848 -274.818)" fill="#f5b900"/>
    <path id="Path_306" data-name="Path 306" d="M72.024,340.708,69.2,339.294l-1.414,13.127s-9.071,6.366-21.841-.766L42.8,340.708a3.862,3.862,0,0,0-3.928,0l4.085,11.713-.786,15.746L40.6,376.882,42.012,389.4l-9.5,27.6a6.711,6.711,0,0,0-.325,1.444l-.861,7.746L23.47,448.815,19.7,467.043,13.1,487s8.328,7.857,14.3,2.357c0,0,2.2-12.1,4.557-19.17,0,0,6.285-8.957,8.014-19.484,0,0,6.285-26.084,17.442-36.769l2.043,20.231v15.661S57.568,464.408,58.2,472.4L59.453,487s8.171,3.928,12.571.628l3.614-44.782,1.414-4.086,1.571-15.87s-.471-19.328-1.414-25.141l-.157-15.3L75.48,367.106s1.564-7.3-1.834-11.667a7.948,7.948,0,0,1-1.74-4.965Z" transform="translate(-5.918 -153.28)" fill="#104184"/>
    <path id="Path_307" data-name="Path 307" d="M99.927,438.794l.081-.189a84.361,84.361,0,0,0-36.237-5.038l1.074-3.121a95.543,95.543,0,0,1,13.327-.122l.013-.2a95.738,95.738,0,0,0-13.423.127l-.067.005-1.22,3.543.156-.013a84.156,84.156,0,0,1,36.3,5.01" transform="translate(-28.675 -194.232)"/>
    <path id="Path_308" data-name="Path 308" d="M48.143,398.7l36.474-7.175a1.843,1.843,0,0,1,1.875.76c1.573,2.283,4.511,8.047-2.582,11.844l-53.848,5.035s-2.724-3.561,0-6.809Z" transform="translate(-13.034 -176.858)" fill="#cae0fc"/>
    <path id="Path_309" data-name="Path 309" d="M29.84,409.13c-.028-.037-2.76-3.69,0-6.986l.032-.038,18.129-3.666,36.475-7.175a1.984,1.984,0,0,1,2.019.82c.973,1.411,2.5,4.2,1.812,7.049-.485,2-1.98,3.681-4.443,5l-53.98,5.059Zm58.2-10.063c.664-2.738-.824-5.449-1.77-6.822a1.7,1.7,0,0,0-1.73-.7l-36.474,7.175L30.03,402.363c-2.406,2.917-.362,6.038-.01,6.532l53.74-5.025c2.374-1.277,3.813-2.893,4.276-4.8" transform="translate(-12.924 -176.741)"/>
    <path id="Path_310" data-name="Path 310" d="M33.51,405.191l7.5,4.2,7.9,3.761,3.457-.632,4.871-1.83h7.228s.628,2.1-3.771,2.462l6.128,1.885s-.157,1.624-3.3,2.1c0,0-.314,2.314-6.285,2.335l-9.9-.922S31,414.166,21.411,405.122Z" transform="translate(-9.673 -183.018)" fill="#9f5a34"/>
    <path id="Path_311" data-name="Path 311" d="M42.645,426.491l7.318-2-.054-.2-7.254,1.981c-.255-.106-1.93-.92-1.408-3.755l3.226-.3-.019-.2-3.379.316-.015.075a3.918,3.918,0,0,0,.529,3.258,2.5,2.5,0,0,0,1.025.816Z" transform="translate(-18.497 -190.65)"/>
    <path id="Path_312" data-name="Path 312" d="M95.669,414.121l21.084-.3.029-.03c.032-.032,3.153-3.213,1.544-6.937l-.188.082c1.472,3.407-1.167,6.356-1.473,6.681l-21,.3Z" transform="translate(-43.218 -183.802)"/>
    <path id="Path_313" data-name="Path 313" d="M132.59,416.822l.031-.2-.015.1.016-.1c-.014,0-1.413-.268-1.564-3.123l-.205.011c.16,3.036,1.673,3.305,1.737,3.315" transform="translate(-59.114 -186.801)"/>
    <path id="Path_314" data-name="Path 314" d="M47.405,393.248l.14-.15c-.107-.1-2.717-2.467-9.879-1.354a23.272,23.272,0,0,1-4.217.3c-2.585-.069-6.074-.5-8.016-2.164l-.134.156c1.987,1.7,5.526,2.144,8.144,2.214a23.429,23.429,0,0,0,4.253-.3c7.05-1.095,9.681,1.277,9.707,1.3" transform="translate(-11.43 -176.133)"/>
    <path id="Path_315" data-name="Path 315" d="M34.033,362.634l2.224-1.583.012-.027,4.557-11,2.329-4.113,6.634-1.534-.046-.2-6.722,1.554-2.379,4.2L36.09,360.918l-2.176,1.549Z" transform="translate(-15.321 -155.485)"/>
    <path id="Path_316" data-name="Path 316" d="M115.277,364.657c0,.706.316,1.278.707,1.278s.707-.572.707-1.278-.317-1.278-.707-1.278-.707.572-.707,1.278" transform="translate(-52.078 -164.16)"/>
    <path id="Path_317" data-name="Path 317" d="M70.261,364.851c.172.685.618,1.162,1,1.067s.546-.727.374-1.412-.618-1.163-1-1.067-.546.727-.374,1.412" transform="translate(-31.711 -164.182)"/>
    <path id="Path_318" data-name="Path 318" d="M63.743,379.617a31.9,31.9,0,0,0-2.477-17.354l-.181.1a31.682,31.682,0,0,1,2.455,17.232Z" transform="translate(-27.596 -163.656)"/>
    <rect id="Rectangle_26" data-name="Rectangle 26" width="5.028" height="0.205" transform="translate(48.822 234.013)"/>
    <path id="Path_319" data-name="Path 319" d="M127.514,404.788l.164-.122a11.581,11.581,0,0,1-1.922-6.322,6.368,6.368,0,0,1,2.855-5.349l-.1-.178a6.576,6.576,0,0,0-2.958,5.527,11.8,11.8,0,0,0,1.962,6.445" transform="translate(-56.719 -177.459)"/>
    <path id="Path_320" data-name="Path 320" d="M85.288,476.738a52.16,52.16,0,0,1,5.475-6.923l4.908-4.719-.143-.148-4.912,4.723a52.353,52.353,0,0,0-5.505,6.963Z" transform="translate(-38.45 -210.045)"/>
    <rect id="Rectangle_27" data-name="Rectangle 27" width="9.153" height="0.205" transform="translate(53.748 255.614) rotate(-84.635)"/>
    <path id="Path_321" data-name="Path 321" d="M97.664,527.6l3.616-29.725-.942-30.711-.205.007.942,30.695L97.46,527.572Z" transform="translate(-44.028 -211.045)"/>
    <rect id="Rectangle_28" data-name="Rectangle 28" width="0.205" height="4.562" transform="translate(68.832 239.021)"/>
    <rect id="Rectangle_29" data-name="Rectangle 29" width="0.205" height="2.125" transform="translate(64.561 240.141)"/>
    <rect id="Rectangle_30" data-name="Rectangle 30" width="0.205" height="3.233" transform="translate(55.239 237.03)"/>
    <rect id="Rectangle_31" data-name="Rectangle 31" width="3.536" height="0.205" transform="translate(50.449 239.631) rotate(-84.921)"/>
    <path id="Path_322" data-name="Path 322" d="M68.915,433.843l.758-3.155-.2-.048-.758,3.154Z" transform="translate(-31.043 -194.546)"/>
    <path id="Path_323" data-name="Path 323" d="M34.894,572.109l5.23-4.834.008-.029,7.107-26.339-.2-.054-7.1,26.311-5.186,4.794Z" transform="translate(-15.701 -244.336)"/>
    <path id="Path_324" data-name="Path 324" d="M7.568,643.725a6.337,6.337,0,0,0,4.4-1.608l-.138-.152c-4.392,3.984-11.637-.931-11.71-.982L0,641.152c.053.036,3.791,2.572,7.568,2.572" transform="translate(0 -289.571)"/>
    <rect id="Rectangle_32" data-name="Rectangle 32" width="2.499" height="0.205" transform="translate(13.486 350.738) rotate(-56.979)"/>
    <path id="Path_325" data-name="Path 325" d="M21.893,622.407a.731.731,0,1,1,.731.731.732.732,0,0,1-.731-.731m.205,0a.526.526,0,1,0,.526-.526.526.526,0,0,0-.526.526" transform="translate(-9.89 -280.848)"/>
    <path id="Path_326" data-name="Path 326" d="M18.167,632.149a.731.731,0,1,1,.731.731.732.732,0,0,1-.731-.731m.205,0a.526.526,0,1,0,.526-.526.527.527,0,0,0-.526.526" transform="translate(-8.207 -285.249)"/>
    <path id="Path_327" data-name="Path 327" d="M115.9,631a.731.731,0,1,1,.731.731A.732.732,0,0,1,115.9,631m.205,0a.526.526,0,1,0,.526-.526.526.526,0,0,0-.526.526" transform="translate(-52.36 -284.732)"/>
    <path id="Path_328" data-name="Path 328" d="M109.8,630.313a.731.731,0,1,1,.731.731.732.732,0,0,1-.731-.731m.205,0a.526.526,0,1,0,.526-.526.527.527,0,0,0-.526.526" transform="translate(-49.604 -284.42)"/>
    <path id="Path_329" data-name="Path 329" d="M113.2,622.429a.731.731,0,1,1,.731.731.732.732,0,0,1-.731-.731m.205,0a.526.526,0,1,0,.526-.526.527.527,0,0,0-.526.526" transform="translate(-51.139 -280.858)"/>
    <path id="Path_330" data-name="Path 330" d="M107.495,622.989a.731.731,0,1,1,.731.731.732.732,0,0,1-.731-.731m.205,0a.526.526,0,1,0,.526-.526.527.527,0,0,0-.526.526" transform="translate(-48.562 -281.111)"/>
    <path id="Path_331" data-name="Path 331" d="M15.874,619.828a.731.731,0,1,1,.731.731.732.732,0,0,1-.731-.731m.205,0a.526.526,0,1,0,.526-.526.526.526,0,0,0-.526.526" transform="translate(-7.171 -279.683)"/>
    <path id="Path_332" data-name="Path 332" d="M12.148,629.571a.731.731,0,1,1,.731.731.732.732,0,0,1-.731-.731m.205,0a.526.526,0,1,0,.526-.526.526.526,0,0,0-.526.526" transform="translate(-5.488 -284.085)"/>
    <path id="Path_333" data-name="Path 333" d="M20.426,621.821l.145-.144a4.82,4.82,0,0,0-3.383-1.444l.021.2a4.715,4.715,0,0,1,3.217,1.384" transform="translate(-7.765 -280.19)"/>
    <path id="Path_334" data-name="Path 334" d="M16.691,631.55l.169-.117a3.9,3.9,0,0,0-3.393-1.457l.016.2a3.681,3.681,0,0,1,3.207,1.369" transform="translate(-6.084 -284.592)"/>
    <path id="Path_335" data-name="Path 335" d="M114.321,630.429l.169-.116c-.042-.061-1.044-1.491-2.153-1.439a1.729,1.729,0,0,0-1.365,1.069l.179.1c.339-.616.741-.94,1.2-.963,1-.048,1.965,1.336,1.975,1.35" transform="translate(-50.132 -284.099)"/>
    <path id="Path_336" data-name="Path 336" d="M108.841,623.072c1.089-1.1,2.994-.293,3.014-.285l.082-.188c-.083-.036-2.053-.872-3.241.329Z" transform="translate(-49.104 -281.123)"/>
    <path id="Path_337" data-name="Path 337" d="M59.672,341.873l-.525,1.829,1.076-.248Z" transform="translate(-26.72 -154.445)"/>
    <path id="Path_338" data-name="Path 338" d="M120.563,341.873l1.09,1.971-1.11-.338Z" transform="translate(-54.457 -154.445)"/>
    <path id="Path_339" data-name="Path 339" d="M109.392,640.938h.111a9.951,9.951,0,0,0,2.967-.4,2.412,2.412,0,0,0,2.107-1.925l-.2-.028a2.186,2.186,0,0,1-1.954,1.755c-.061.02-4.361,1.466-10.442-1.374l-2.89-3.446v4.787h.205v-4.223l2.577,3.058a17.8,17.8,0,0,0,7.522,1.8" transform="translate(-44.764 -287.102)"/>
    <rect id="Rectangle_33" data-name="Rectangle 33" width="3.477" height="0.205" transform="matrix(0.098, -0.995, 0.995, 0.098, 56.707, 355.396)"/>
    <path id="Path_340" data-name="Path 340" d="M101.6,643.743l.042-3.505-.205,0-.042,3.506Z" transform="translate(-45.808 -289.232)"/>
    <rect id="Rectangle_34" data-name="Rectangle 34" width="3.285" height="0.205" transform="translate(58.227 356.335) rotate(-85.904)"/>
    <rect id="Rectangle_35" data-name="Rectangle 35" width="0.205" height="3.997" transform="translate(60.419 353.18)"/>
    <rect id="Rectangle_36" data-name="Rectangle 36" width="0.205" height="3.699" transform="translate(62.689 353.733)"/>
    <rect id="Rectangle_37" data-name="Rectangle 37" width="0.205" height="3.448" transform="translate(64.484 353.739) rotate(-3.061)"/>
    <rect id="Rectangle_38" data-name="Rectangle 38" width="0.205" height="2.584" transform="translate(67.043 353.488) rotate(-4.903)"/>
    <rect id="Rectangle_39" data-name="Rectangle 39" width="0.205" height="3.709" transform="matrix(0.979, -0.203, 0.203, 0.979, 1.179, 352.248)"/>
    <rect id="Rectangle_40" data-name="Rectangle 40" width="0.205" height="2.171" transform="translate(3.433 353.27) rotate(-7.827)"/>
    <rect id="Rectangle_41" data-name="Rectangle 41" width="0.205" height="2.7" transform="translate(6.191 354.082) rotate(-10.017)"/>
    <rect id="Rectangle_42" data-name="Rectangle 42" width="0.205" height="3.319" transform="translate(8.941 353.927) rotate(-6.746)"/>
    <rect id="Rectangle_43" data-name="Rectangle 43" width="0.205" height="3.872" transform="translate(11.218 352.953) rotate(-11.731)"/>
    <path id="Path_341" data-name="Path 341" d="M121.454,518.419l3.161-4.082,1.571-5.673,1.106-11.158-.2-.02-1.1,11.14-1.562,5.635-3.13,4.03Z" transform="translate(-54.795 -224.745)"/>
    <path id="Path_342" data-name="Path 342" d="M132.83,380.191l6.036-4.469L126.7,346.811l-4.181,1.1.052.2,4.009-1.051,12.034,28.6-5.907,4.373Z" transform="translate(-55.35 -156.675)"/>
    <path id="Path_343" data-name="Path 343" d="M170.389,629.7a13.126,13.126,0,0,0-18.539-11.975,20.478,20.478,0,0,0-31.176-3.271,31.328,31.328,0,0,0-57.311,4.753,15.523,15.523,0,0,0-27.39,10.015Z" transform="translate(-16.251 -270.106)" fill="#f9e093"/>
    <path id="Path_344" data-name="Path 344" d="M760.76,629.7a13.126,13.126,0,0,0-18.539-11.975,20.478,20.478,0,0,0-31.176-3.271,31.328,31.328,0,0,0-57.311,4.753,15.524,15.524,0,0,0-27.39,10.015Z" transform="translate(-282.957 -270.106)" fill="#f9e093"/>
    <line id="Line_7" data-name="Line 7" x1="344.274" transform="translate(56.511 359.578)" fill="none" stroke="#1d4579" stroke-miterlimit="10" stroke-width="3.011"/>
    <line id="Line_8" data-name="Line 8" x2="89.437" transform="translate(421.509 359.578)" fill="none" stroke="#1d4579" stroke-miterlimit="10" stroke-width="3.011"/>
    <rect id="Rectangle_44" data-name="Rectangle 44" width="49.614" height="29.846" transform="translate(179.013 138.706)" fill="#104184"/>
    <rect id="Rectangle_45" data-name="Rectangle 45" width="10.266" height="4.753" transform="translate(183.287 148.877)" fill="#007bfe"/>
    <rect id="Rectangle_46" data-name="Rectangle 46" width="10.266" height="4.753" transform="translate(193.553 153.629)" fill="#007bfe"/>
    <rect id="Rectangle_47" data-name="Rectangle 47" width="10.266" height="4.753" transform="translate(203.82 148.877)" fill="#007bfe"/>
    <rect id="Rectangle_48" data-name="Rectangle 48" width="10.266" height="4.753" transform="translate(214.086 153.629)" fill="#007bfe"/>
    <path id="Path_345" data-name="Path 345" d="M264.259,539.72V439.1h55.792v35h31.963" transform="translate(-119.381 -198.368)" fill="none" stroke="#132e51" stroke-miterlimit="10" stroke-width="1.505"/>
    <path id="Path_346" data-name="Path 346" d="M276.544,449.708a2.8,2.8,0,1,1-2.8-2.8A2.8,2.8,0,0,1,276.544,449.708Z" transform="translate(-122.406 -201.897)" fill="none" stroke="#132e51" stroke-miterlimit="10" stroke-width="1.024"/>
    <line id="Line_9" data-name="Line 9" y1="4.721" x2="2.959" transform="translate(149.803 245.341)" fill="none" stroke="#132e51" stroke-miterlimit="10" stroke-width="1.024"/>
    <path id="Path_347" data-name="Path 347" d="M353.536,494.577a2.8,2.8,0,1,1-2.8-2.8A2.8,2.8,0,0,1,353.536,494.577Z" transform="translate(-157.188 -222.167)" fill="none" stroke="#132e51" stroke-miterlimit="10" stroke-width="1.024"/>
    <line id="Line_10" data-name="Line 10" y1="4.721" x2="2.959" transform="translate(192.013 269.94)" fill="none" stroke="#132e51" stroke-miterlimit="10" stroke-width="1.024"/>
    <path id="Path_348" data-name="Path 348" d="M270.466,190.638V175.219h8.4v9.122Z" transform="translate(-122.186 -79.157)" fill="#104184"/>
    <path id="Path_349" data-name="Path 349" d="M270.466,195.8v-6.268l8.4-2.883v2.854Z" transform="translate(-122.186 -84.322)" fill="#132e51"/>
    <path id="Path_350" data-name="Path 350" d="M231.641,181.286,228.9,183.31V135.419a14.179,14.179,0,0,1,28.358,0v15.414h-2.741V135.419a11.438,11.438,0,0,0-22.875,0Z" transform="translate(-103.408 -54.771)" fill="#f5b900"/>
    <path id="Path_351" data-name="Path 351" d="M397.149,574.261h-9.974a16.244,16.244,0,0,1-16.548-16.548l1.723-1.218c0,8.175,6.65,15.573,14.824,15.573h9.974a14.842,14.842,0,0,0,14.824-14.825V526.706l2.193-1.644v32.181a17.037,17.037,0,0,1-17.017,17.018" transform="translate(-167.435 -237.202)" fill="#f5b900"/>
    <path id="Path_352" data-name="Path 352" d="M228.9,228.047v-5.679l2.741-2.1v5.755Z" transform="translate(-103.408 -99.509)" fill="#b88b00"/>
    <path id="Path_353" data-name="Path 353" d="M446.043,526.706v5.176l2.193-1.54v-5.281Z" transform="translate(-201.505 -237.202)" fill="#b88b00"/>
    <path id="Path_354" data-name="Path 354" d="M372.351,582.4a22.091,22.091,0,0,0,.635,4.36l-1.652,1.812a29.449,29.449,0,0,1-.707-4.954Z" transform="translate(-167.435 -263.103)" fill="#b88b00"/>
  </g>
</svg>
